<?xml version="1.0" encoding="utf-8"?>
<!-- Svg Vector Icons : http://www.onlinewebfonts.com/icon -->
<!DOCTYPE svg PUBLIC "-//W3C//DTD SVG 1.1//EN" "http://www.w3.org/Graphics/SVG/1.1/DTD/svg11.dtd">
<svg version="1.1" xmlns="http://www.w3.org/2000/svg" xmlns:xlink="http://www.w3.org/1999/xlink" x="0px" y="0px" viewBox="0 0 256 256" enable-background="new 0 0 256 256" xml:space="preserve">
<metadata> Svg Vector Icons : http://www.onlinewebfonts.com/icon </metadata>
<g><g><g><path fill="#1e293b" d="M221.6,3.9C221,4.5,220.2,5,219.9,5c-1.5,0-8.4,2.9-8.4,3.5c0,0.4-0.5,1.1-1.2,1.5c-1.2,0.8-1.3,0.8,1.4,1.6c1.3,0.4,0.9,1.3-0.5,1.3c-1.4,0-3.9,2.3-4,3.6c0,0.8,0.3,0.8-2.7-0.1c-2.6-0.8-3.8-0.5-5.1,1.4c-0.7,1-4.9,1.4-4.9,0.4c0-0.7-2-0.7-2.4,0c-0.2,0.3-0.5,0.4-0.7,0.3c-0.2-0.2-1.3-0.1-2.3,0.3c-1.9,0.5-2.2,1.3-1,2.8c0.6,0.7,0.5,1-0.1,1.6c-0.4,0.4-1.2,0.8-1.8,0.8c-3.8,0.2-3.9,0.2-3.6,1.8l0.3,1.5l-2.2-1.1c-1.2-0.6-2.1-1.4-1.9-1.6c0.2-0.3,0.1-0.5-0.2-0.5c-0.3,0-0.5-0.3-0.4-0.6c0.1-0.4-0.8-0.8-2.4-1c-2.2-0.3-2.5-0.2-2.7,0.8c-0.1,0.8-0.6,1.1-2.1,1.2c-1.2,0.1-2-0.1-2-0.4c0-0.8-2.8-0.7-3.6,0.1c-0.5,0.5-0.8,0.5-1.3,0c-0.7-0.7-3.3-0.9-2.9-0.2c0.3,0.5-2.3,1.9-2.8,1.4c-0.2-0.2,0.7-1.3,2-2.7c1.3-1.3,2.4-2.7,2.4-3.1c0.2-1-2.3-2.6-3.3-2.2c-1.3,0.5-3.4-0.3-3.1-1.1c0.5-1.3-2-0.6-2.5,0.7c-0.6,1.3-3.3,2.4-4.9,2c-0.7-0.2-1.2-0.1-1.2,0.2c0,0.3-1.2,0.7-2.7,0.9c-2.4,0.3-2.7,0.5-3,1.9c-0.3,1.5-0.4,1.5-3.1,1.5c-2.6,0-2.9,0.1-3.2,1.3c-0.2,0.9-0.1,1.7,0.6,2.3c0.7,0.9,0.8,1.3,0.2,3.2c-0.4,1.2-0.9,2.1-1.2,2c-0.7-0.3-0.4-2,0.5-3c0.6-0.7,0.5-1-1-2.2c-1.4-1.2-1.9-1.3-2.9-0.8c-0.8,0.4-1.1,0.9-0.9,1.6c0.2,0.7,0.1,0.9-0.4,0.7c-0.4-0.2-0.7-0.9-0.7-1.6c0.1-1.6,0.1-1.6-1.4-0.9c-0.5,0.3-1,1-1,1.5c0,0.5-0.5,1.7-1.1,2.7l-1.1,1.7l1.3,0.5c1.6,0.6,2.2,1.9,1.5,3.1c-1,1.6-1.8,1.3-1.2-0.4c0.4-1.4,0.3-1.6-0.5-1.6c-0.6,0-1.3,0.5-1.6,1.1c-0.3,0.5-1.6,1.8-3,2.7l-2.4,1.6l-1.1-1.1l-1.1-1.1h1.4c1.8,0,5.3-2.5,5-3.7c-0.1-0.5,0.5-2,1.3-3.3s1.4-2.8,1.4-3.2c0-0.4,0.5-1.2,1.1-1.8c0.7-0.6,0.9-1.2,0.6-1.5c-0.3-0.3-0.4-0.9-0.2-1.4c0.3-0.7,0.2-0.7-0.7-0.1c-0.5,0.4-1.6,1.3-2.3,2c-0.7,0.6-1.9,1.3-2.5,1.5c-0.6,0.2-1.5,1-2,1.8c-0.7,1.1-0.8,1.6-0.3,2.7c0.5,1.1,0.5,1.5-0.3,2.1c-1.3,1-1.6,0.9-2.2-0.7l-0.5-1.4l-0.3,1.9c-0.5,2.3-2.1,3.2-8.5,4.5l-4.6,0.9l-2,2.8c-1.1,1.6-2.3,3-2.8,3.2c-0.4,0.2-2.5,2.2-4.6,4.6c-2.7,3-4.3,4.5-5.6,4.9c-1.7,0.5-1.8,0.7-1.6,2.5c0.1,1.7-0.1,2-1.1,2.3c-0.7,0.2-2,0.1-2.8-0.3c-2-0.7-2.5-0.2-2.3,2.4c0.2,2,0.2,2.1,2.4,2.2c2.8,0.2,3,1.2,0.4,2.7c-1.8,1.1-2.4,2.3-1.3,3c0.3,0.2,0.9,1.2,1.3,2.2c1,2.3,0.3,3.7-1.4,2.8c-0.6-0.3-1.4-0.4-1.8-0.3C80.2,72.2,80,72,80,71.3c0-0.6-0.5-1.3-1.1-1.6c-0.6-0.3-1.5-1.3-2.1-2.2c-1-1.6-5.1-3.6-7.8-3.6c-1.4,0-2.8,1.9-2.8,3.8c0,0.8-0.6,2.1-1.3,3c-1.9,2.2-2.1,3.6-0.9,4.7c1.4,1.3,1.3,1.7-0.5,3.4c-1.3,1.2-1.8,1.3-2.7,0.9c-0.9-0.4-1.3-0.3-1.8,0.4c-0.5,0.7-0.8,0.7-1.3,0.2c-0.5-0.5-0.6-0.4-0.5,0.4c0.1,0.6-0.1,1.8-0.3,2.5c-0.3,1-0.2,2,0.3,2.8c0.5,1,0.5,1.4-0.2,2.4c-0.5,0.7-0.8,1.5-0.8,1.8c0,0.3,0.2,0.2,0.5-0.2c0.8-1.3,2.2-0.2,2.2,1.8c0,1.6-0.2,1.9-1.3,1.9c-0.7,0-1.4-0.3-1.5-0.7c-0.2-0.5-0.5-0.4-1.2,0.3c-0.7,0.7-0.8,1.1-0.3,1.6c0.8,0.8,0.9,2.2,0.1,1.7c-0.4-0.2-0.5,0-0.3,0.7c0.4,1.1-1.9,7-2.7,7c-0.2,0-1.2-0.3-2.1-0.6c-1.2-0.4-2.1-1.4-3.2-3.3c-1.4-2.6-1.4-2.9-0.8-5c0.4-1.2,1-2.2,1.4-2.2s1-0.5,1.3-1.1c0.3-0.6,0.9-1.1,1.3-1.1c0.6,0,0.6-0.4-0.3-2c-0.6-1.1-1.1-2.5-1.1-3.2c0-1.3-1.3-4.9-3.6-9.5c-0.7-1.5-1.5-3.4-1.8-4.2c-0.4-1.2-0.4-1-0.3,1c0.1,1.4-0.2,3.2-0.5,4.1c-0.6,1.4-1,1.6-2.5,1.6c-2.7,0-5.1-3.4-5.1-7.3c0-2.5-1.3-3.8-3.6-3.8c-1.2,0-1.8-0.3-2.3-1.5c-0.5-1.1-0.7-1.2-1-0.6C27,66.8,26,66.6,25.3,65c-0.4-0.9-0.8-1.6-1-1.6c-0.8,0.1-1.8,1.1-1.5,1.8c0.2,0.4-0.3,1.3-0.9,2c-1.5,1.6-2.9,4.6-2.7,5.7c0.1,0.5,0.2,1.8,0.2,2.9c0.1,1.6,0.2,2,0.7,1.5c1.1-1.1,1.5-0.7,1.5,1.7c0,2.3,1,3.8,2.2,3.4c0.3-0.1,1,0.2,1.5,0.6c0.8,0.8,0.7,1.1-0.9,3.3c-1,1.4-1.8,2.7-1.9,2.9c-0.1,0.3-1.6,1.7-3.4,3.3c-2.8,2.3-3.4,3.3-4.1,5.6c-0.5,1.5-1.3,3.3-1.8,4c-0.7,0.9-1,2.3-1.1,4.7c-0.1,1.9-0.3,4.9-0.6,6.6c-0.3,1.8-0.5,3.7-0.5,4.2c0,0.6,0.1,2.3,0.1,3.8c0.1,1.4-0.2,3.6-0.6,4.7c-0.5,1.6-0.5,3.2,0,7.9c0.4,3.2,0.5,7.5,0.3,9.6c-0.2,2-0.5,5.9-0.6,8.6c-0.3,4.8-0.3,5,1,5.8c0.6,0.5,1.6,0.8,2.2,0.7c0.5-0.1,2.1,0.3,3.3,0.7c1.3,0.5,2.9,0.8,3.7,0.6c0.7-0.1,2.5,0,4,0.3c2.3,0.4,2.9,0.4,3.4-0.4c0.6-0.8,1-0.9,3.3-0.2c2.3,0.6,2.8,0.6,3.6-0.2c0.7-0.6,1.2-0.7,1.9-0.4c0.7,0.4,1.1,0.3,1.5-0.6c0.4-0.8,0.9-1,1.9-0.7c1.1,0.3,1.3,0.1,1.8-1.5c0.3-1,0.8-1.8,1.3-1.8c0.4,0,1.7-0.8,2.8-1.8c1.9-1.7,2-1.8,1.4-4c-0.4-1.2-1.3-3-2.2-3.9c-1.9-1.9-2.5-5.6-1.5-7.6c0.6-1.1,0.4-1.1-2.5,0.6c-3.1,1.6-3.2,1.7-4.6,0.8c-0.7-0.5-1.7-0.9-2.1-0.9c-1.3,0-1.6-2.5-0.7-4.6c0.5-1.1,0.7-1.9,0.4-2.1c-0.3-0.2-0.8,0.3-1.2,1.2l-0.6,1.5l-0.2-2.2c-0.1-1.3,0.1-2.7,0.3-3.2c0.4-0.6,0.3-1.4,0-2.2c-0.6-1.6-0.4-8.6,0.4-9.4c0.6-0.7,2.4-0.3,3.3,0.8c0.4,0.5,0.7,2.5,0.7,4.6c0,2.5,0.3,4,0.7,4.4c0.4,0.3,1,1.6,1.4,2.8c1,3.3,1.9,4.1,4.7,4.1h2.3v2.3c0,2.3,0.1,2.4,4.3,5.8c4,3.2,4.7,3.5,9.1,4.5c2.6,0.6,5.1,1.1,5.5,1.1c0.5,0,0.7,0.6,0.7,1.5c0,0.8,0.3,1.6,0.8,1.9c0.4,0.2,0.8,0.9,0.8,1.6c0,0.7,0.3,1.3,0.5,1.3c0.3,0,1,1.1,1.6,2.4c0.8,2,1.3,2.4,2.4,2.4c0.9,0,1.3,0.3,1.2,0.6c-0.1,0.4-0.9,0.6-1.9,0.5l-1.7-0.2l1.8,2.8c1.6,2.4,2.1,2.8,3.7,3c1.6,0.2,1.9,0,2.4-1.5c0.3-1,0.8-1.5,1.1-1.3c0.4,0.3,0.4,0.6-0.1,1.1c-0.3,0.4-0.4,0.7-0.1,0.7c0.3,0,0.3,0.9,0,2.5c-0.3,1.4-0.4,5.3-0.4,8.6c0.1,5.6,0.3,6.7,2.7,14.1c1.4,4.4,2.8,9.3,3.1,10.9c0.4,2.1,1.1,3.4,2.2,4.5l1.6,1.5l0.8-1.2c0.5-0.7,1.2-1.2,1.8-1.2c0.5,0,1.1-0.5,1.2-1.1c0.2-0.6,0.8-1.2,1.4-1.4c0.8-0.2,1.1-0.7,1.1-2.1c0-1,0.4-2.7,0.8-3.8c0.5-1.1,0.9-3.1,0.8-4.5c-0.2-3.3,0.3-4.8,1.4-4.3c0.5,0.2,1.2-0.1,1.7-0.4c0.5-0.4,1.5-0.9,2.3-1.1c0.8-0.2,1.4-0.6,1.4-1.1c0-0.4,1-1.1,2.3-1.6c1.2-0.5,3.2-1.8,4.3-2.7c1.2-1,3-2,4-2.3c2.3-0.7,3.9-2.3,3.5-3.5c-0.2-0.5,0.1-0.9,1-1.1c0.7-0.2,1.6-0.7,1.9-1.2c0.4-0.7,0.5-0.7,0.5,0.2c0,0.7,0.2,0.8,0.7,0.4c0.4-0.3,0.9-0.4,1.1-0.2c0.5,0.5,3,0.5,3,0.1c0-0.2,0.4-0.3,0.8-0.1c0.5,0.2,0.8,0,0.8-0.4c0-0.6,0.2-0.6,0.5,0.1c0.4,0.6,0.5,0.5,0.5-0.4c0-1,0.3-1.2,1.1-1.1c0.8,0.1,1.5,1.2,2.7,4c0.9,2.1,1.8,3.7,2,3.6c0.2-0.2,0.5,0.1,0.7,0.5c0.2,0.4,0.6,0.8,1.1,0.8c1.4,0,3.1,6.6,2.3,9.4c-0.3,1-0.4,2-0.2,2.1c0.5,0.5,3.5,0.7,3.5,0.2c0-0.3,0.5-0.5,1.1-0.5c0.6,0,0.9-0.2,0.7-0.5c-0.2-0.3,0.1-0.4,0.5-0.2c0.6,0.2,1-0.1,1.3-0.9l0.4-1.3l0.4,1.2c0.2,0.6,0.7,1.2,1.1,1.2c0.5,0,0.8,1.2,1,3.8c0.2,2.1,0.5,3.9,0.8,4.1c1,0.6,1.7,2.5,1.7,4.9c0.1,3.8-0.3,8.8-0.7,9.4c-0.2,0.3,0.6,1.4,1.8,2.5c2.5,2.3,3.3,3.7,4.2,7.2c1,4,2.5,6.1,6,8.1c2.5,1.5,3.4,1.7,4.1,1.2c0.9-0.5,0.9-0.6-0.1-2c-0.6-1-1-2.3-1-4c0-2.4-0.2-2.7-2.7-5c-1.5-1.4-3.3-2.7-4.1-2.9c-2.1-0.5-2.5-1.1-3.3-4c-0.5-1.8-1-2.6-1.6-2.6c-1.6,0-1.7-2.4-0.2-5c0.7-1.3,1.3-3.1,1.3-4.1c0-1.9,0.6-2.5,2.5-2.5c0.5,0,0.7,0.3,0.5,1.1c-0.2,0.9,0,1.1,1,1.1c2.1,0,4.3,1.4,4.9,3.2c0.4,1.2,0.8,1.5,1.4,1.3c0.5-0.2,0.8,0,0.8,0.5c0,0.4,0.2,0.7,0.4,0.7c0.2-0.1,1.2,0.2,2.2,0.6c1.6,0.7,1.8,0.9,1.5,2.5c-0.3,2,0.3,2.2,2.2,0.9c0.7-0.5,1.1-1.2,1-1.6c-0.3-0.6-0.1-0.7,0.5-0.5c0.5,0.2,0.7,0.1,0.6-0.1c-0.3-0.6,1.4-2.1,2.1-1.9c0.3,0.1,1.6-0.5,2.9-1.3c3.1-2,4-4.7,2.9-9.3c-0.9-3.9-1.9-5.4-4.4-6.7c-2.9-1.5-6.5-6.3-6.1-8.2c0.2-0.8,0.7-1.8,1.3-2.2c0.5-0.4,1.1-1.2,1.1-1.9c0.1-0.7,0.4-1.1,1-1.1c0.5,0,1.1-0.4,1.3-0.8c0.2-0.4,0.7-0.8,1.2-0.8s1.2-0.3,1.5-0.6c0.4-0.4,0.8-0.4,1.3,0c0.5,0.4,0.9,0.4,1.3,0.1c0.7-0.7,1.9-0.1,1.4,0.6c-0.4,0.7,0.2,3.1,0.8,3.1c0.3,0,0.5-0.7,0.5-1.6c0-1,0.3-1.6,0.7-1.6c0.4,0,1.3-0.4,2-1c0.7-0.5,1.9-1.2,2.5-1.4c1.8-0.5,3.1-2,2.8-3.2c-0.2-1.1-0.2-1.1,1-0.1c0.8,0.8,1.3,0.8,1.9,0.4c0.4-0.3,1.5-0.7,2.4-0.8c1.6-0.2,4-1.8,3.5-2.2c-0.3-0.4,1.4-2,2.5-2.4c0.6-0.2,0.8-0.7,0.6-1.2c-0.2-0.5,0-0.8,0.5-0.8c0.4,0,0.8-0.4,0.8-0.8c0-0.4,0.3-0.8,0.6-0.8c0.3,0,0.4-0.2,0.3-0.3c-0.2-0.2,0.1-0.7,0.6-1.2c0.5-0.5,0.9-1.6,0.9-2.5c-0.1-1,0.2-1.8,0.6-1.8c0.7,0,1.5-3.4,1-4.2c-0.2-0.3,0.2-0.6,0.8-0.8c0.8-0.3,1-0.7,0.8-1.9c-0.1-0.8,0-1.5,0.2-1.5s0.4-0.6,0.4-1.3c0-1.4-1.1-1.9-3.1-1.2c-1.2,0.4-1.2,0.3,0.4-1.1l1.8-1.5l-1.5-1.1l-1.5-1.1l1.3-0.1h1.3l-1.6-1.3c-0.9-0.7-2-2.3-2.5-3.4c-0.7-1.5-1.4-2.2-2.5-2.4c-0.9-0.2-1.5-0.7-1.5-1.2c0-0.9,1.6-4,2.3-4.3c0.2-0.1,0.4-0.6,0.4-1.2c0-1.1,1.9-2.4,3.1-2.2c0.3,0.1,0.6-0.2,0.6-0.6c0-0.5-0.8-0.8-2.2-1.1c-2-0.3-2.5-0.1-3.9,1.3l-1.6,1.6l-0.7-1.6c-0.5-1.3-1-1.6-2.2-1.6c-1.3,0-1.5-0.2-1.5-1.3c0-0.9,0.4-1.4,1.3-1.6c0.9-0.2,1.9-1.3,3-3.2c1.9-3.4,3.2-4.3,4.2-3.1c0.5,0.6,0.5,1.1,0.1,2.1c-0.3,0.7-0.6,1.5-0.6,1.8c0,0.8,1.6,0.2,3.1-1.2c1.1-1.1,2-1.4,3.7-1.4c2.1,0,2.2,0.1,1.9,1.3c-0.2,0.9-0.1,1.3,0.3,1.3c0.5,0,0.4,0.3-0.2,1c-1.1,1.2-0.3,1.7,1.9,1.3c1-0.2,1.6,0.1,2.2,1c0.8,1.1,0.8,1.2-0.1,1.9c-0.8,0.6-0.8,0.7,0.5,1.3c1.1,0.5,1.3,0.9,1.1,2.4c-0.1,1,0,2.2,0.3,2.7c0.4,0.7,0.6,0.7,1.9-0.4c0.7-0.7,1.6-1.1,1.9-1c0.4,0.1,0.6-0.2,0.6-0.6s0.3-0.9,0.6-0.9c0.4,0,0.5-0.9,0.4-2.7c-0.2-2.2-0.6-3-2.3-4.8c-1.1-1.2-2.7-2.5-3.5-2.9c-0.8-0.4-1.5-1-1.5-1.3s0.8-1.7,1.8-3.1c1.4-1.9,1.7-2.7,1.3-3.6c-0.4-1.2,0.5-4.4,1.2-4.4c0.2,0,0.4-0.6,0.4-1.4c0-1.3,0.2-1.4,1.8-1.1c1.5,0.3,1.9,0.1,3.1-1.4c3-3.8,3.9-18.9,1.4-23.1c-0.6-1-1.3-2.9-1.5-4.2c-0.3-1.5-0.9-2.8-1.6-3.3c-0.6-0.5-1-1.1-0.7-1.4c0.4-0.6-3.3-2.2-4.2-1.9c-0.4,0.1-0.8,0.8-1,1.5c-0.4,1.3-1.4,1.8-1.4,0.6c0-0.5-0.1-0.5-0.5,0.1c-0.4,0.6-0.5,0.6-0.7-0.1c-0.2-0.5-1-0.9-2-0.9c-0.9,0-1.6-0.1-1.6-0.2c0-0.1,0.5-1.5,1-3.2c0.6-1.6,1.2-5.1,1.4-7.7l0.4-4.7l2.6-1.7c1.4-0.9,3-1.8,3.4-2c0.5-0.2,0.7-0.6,0.6-1c-0.3-0.7,0.7-1.3,2.4-1.3c0.6,0,0.9,0.2,0.7,0.5c-0.7,1.2,0.8,0.4,1.8-0.8c1.3-1.6,1.4-2.4,0.4-2c-0.5,0.2-1-0.5-1.6-2.2c-1-3-1.1-4-0.2-5.8c0.7-1.6,1.3-1.7,1.8-0.3c0.2,0.6,0.7,1.1,1.1,1.1c0.6,0,0.7-0.4,0.4-2c-0.2-1.1-0.7-2.4-1.1-2.9c-0.4-0.5-0.6-1.2-0.4-1.4c0.5-0.8,1.3-0.7,1.3,0.1c0,0.4,0.7,1.4,1.5,2.2c1,1,1.4,1.8,1.3,2.6c-0.1,0.6,0.4,2.8,1.1,4.8c0.8,2.2,1.3,4.1,1.1,4.9c-0.6,2.5,2.1,6.2,9.8,12.9l3.9,3.4l-0.4-2.1c-0.2-1.1-0.9-2.5-1.4-3.2c-0.9-1-0.9-1.2-0.2-1.8c0.7-0.6,0.7-0.9-0.4-2c-0.8-0.9-1.2-1.8-1-2.9c0.1-1.2-0.3-2-1.3-3.1c-0.8-0.8-1.3-1.8-1.1-2.1c0.2-0.3-0.4-1-1.3-1.4c-0.8-0.5-1.6-1.2-1.6-1.4s-0.4-0.4-0.9-0.3c-0.6,0.2-1.5-0.6-2.7-2.3c-1.8-2.6-2.1-3.6-1.2-3.6c0.3,0,0.4-0.5,0.2-1.1c-0.3-0.9-0.2-1,0.3-0.7c0.5,0.3,0.6,0.2,0.3-0.2c-0.6-1,0.2-2.7,1.3-2.7c1,0,1-0.1,0.1-1.8c-1.8-3-2.8-7.2-2-8.4c0.5-0.8,0.5-1.1-0.2-1.5c-1.3-0.8-5.5-1.3-5.7-0.6c-0.1,0.3-0.4,0.6-0.7,0.6s-0.2-0.6,0.1-1.4c0.4-1.2,0.3-1.6-0.6-2.7c-0.7-0.6-1.5-1.2-1.9-1.2c-0.4,0-0.7-0.3-0.7-0.5c0-0.3,0.6-0.4,1.3-0.2c0.8,0.2,1.3,0.1,1.3-0.3c0-0.3,0.6-0.6,1.3-0.6c0.7,0,1.5-0.3,1.8-0.7c0.4-0.5,0.2-0.9-1-1.4c-0.9-0.4-1.8-1.1-2-1.6C224.7,2.7,223.1,2.4,221.6,3.9z"/><path fill="#1e293b" d="M223.2,63.6c0,1.4,1.4,3.8,2.8,4.6c0.7,0.5,2.8,3.7,4.7,7.3s3.5,6.1,3.6,5.6c0.1-0.4,0.5-0.8,0.8-0.8c0.4,0,0-0.5-0.8-1.2c-0.8-0.6-1.8-2-2.3-3.1c-0.6-1.6-0.7-2,0-2.5c0.4-0.3,1.1-0.4,1.4-0.2c0.4,0.3-1.5-1.8-4.2-4.4c-2.7-2.7-4.9-5.1-4.9-5.5c0-0.3-0.2-0.5-0.5-0.5C223.5,62.8,223.2,63.2,223.2,63.6z"/><path fill="#1e293b" d="M244.8,79c-0.2,0.2-0.4,0.9-0.4,1.5c0.1,1,0.1,1.1,0.6,0.2C245.6,79.7,245.4,78.4,244.8,79z"/><path fill="#1e293b" d="M243.5,84.6c0,0.7,0.1,1,0.3,0.6c0.1-0.3,0.1-1,0-1.3C243.6,83.6,243.5,83.8,243.5,84.6z"/><path fill="#1e293b" d="M235.7,85.7c0.2,0.7,0.7,2.1,1.2,3.1c0.6,1.5,0.6,1.9,0.1,2.4c-0.9,0.6-0.9,3.7-0.1,4.5c0.3,0.3,1,0.4,1.5,0.2c0.9-0.4,0.9-0.4-0.2-0.8c-1.3-0.5-1.6-1.5-0.4-1.5c0.4,0,0.8-0.3,0.8-0.5c0-0.3,0.8-0.5,1.9-0.5c1.6,0,1.9-0.2,1.9-1.3c0-0.7,0.3-1.9,0.7-2.5c0.6-1,0.6-1.4,0.1-2.4c-0.6-1-0.7-1.1-1-0.4c-0.5,1.2-2.1,1.1-4.7-0.3l-2.2-1.1L235.7,85.7z"/><path fill="#1e293b" d="M239.6,97c0.5,0.6,0.5,0.8-0.2,0.8c-1.1,0-1.2,2.9-0.1,3.3c0.4,0.2,0.8,1.4,1.1,2.9c0.3,2,0.1,3.3-0.8,5.6c-1.2,3.1-1.7,3.6-2.5,2.1c-0.4-0.6-0.5,0.1-0.4,2.2l0.1,3l-2.8,1.2c-2.2,1-3.2,1.8-4.7,4c-1.1,1.6-1.7,3-1.4,3.3c0.5,0.5,2.8,0,2.8-0.6c0-0.6,3.6-3.8,4.8-4.3c0.7-0.3,1-0.2,1,0.6c0,0.5,0.4,1.3,0.8,1.7c0.7,0.5,0.9,0.5,1.3-0.1c1.5-2.2,1.5-2.5,0.6-3.1c-0.8-0.5-0.8-0.6-0.2-1.1c1.1-0.7,1.8-0.7,1.3,0.1c-0.2,0.4-0.1,0.4,0.7,0.1c0.5-0.3,1.3-1.2,1.8-1.9c0.4-0.7,0.9-1.4,1.2-1.4c0.2,0,0.4-0.5,0.4-1.1c0-1,0.1-1,0.8-0.5c0.7,0.5,0.8,0.5,0.8-0.4c0-0.6-0.2-1.3-0.5-1.4c-0.3-0.2-0.5-0.9-0.5-1.6c0-0.7-0.4-2-0.8-2.9c-0.5-0.8-0.6-1.9-0.4-2.2c1.2-1.9-2-8.8-4-8.9C239.1,96.2,239.1,96.4,239.6,97z"/><path fill="#1e293b" d="M232.9,123.6c-1.8,2-1.9,2.3-1.2,3.1c1,1.1,1.4,1,1.8-0.5c0.2-0.8,0.6-1.2,1.1-1c0.8,0.3,1.6-1.5,1.1-2.4C235.1,121.9,234.1,122.2,232.9,123.6z"/><path fill="#1e293b" d="M226.7,127.5c-0.5,0.6-0.9,1.4-0.7,1.9c0.2,1.2,1.2,0.7,1.1-0.5l-0.2-1.1l0.9,1.1c0.5,0.7,0.8,1.8,0.7,3c-0.1,1.4,0.1,2.1,0.6,2.3c1.3,0.5,2.2-0.8,2.2-3.4c0-2.1-0.2-2.7-1.3-3.4C228.2,126.2,227.8,126.3,226.7,127.5z"/><path fill="#1e293b" d="M209.8,161c-1.8,3.2-1.9,4.2-0.2,5.8l1.3,1.2l0.6-3.6c0.4-2,0.8-4.1,1-4.8C213,157.3,211.3,158.2,209.8,161z"/><path fill="#1e293b" d="M212.8,178.3c-1,0.2-1.1,0.5-0.9,3.6c0.2,3.2,0.2,3.4-0.9,3.4c-1.3,0-1.3,0.2-0.5,2.4c0.6,1.6,2,2.9,2,1.8c0-0.3,0.3-0.5,0.6-0.5c0.4,0,0.5,0.5,0.3,1.3c-0.3,1.1-0.2,1.3,0.6,1.3c0.5,0,1.2-0.3,1.6-0.6c0.5-0.5,0.8-0.4,1.7,0.4c1,0.9,1.1,0.9,1.1,0c0-0.9,0.1-0.9,1-0.1c1.4,1.3,2.1,1.1,2.1-0.4c0-0.8-0.3-1.3-0.7-1.3s-0.7,0.3-0.7,0.6c0,0.3-0.3,0.2-0.7-0.3c-0.6-0.9-0.8-0.9-1.5-0.1c-0.8,0.8-1,0.7-2-0.5c-1.4-1.8-1.4-1.6-0.1-4.8c0.9-2.1,1-2.8,0.5-4c-0.3-0.8-0.4-1.8-0.2-2C216.4,177.9,215,177.8,212.8,178.3z"/><path fill="#1e293b" d="M181.3,178.8c-0.7,0.2-1.9,0.7-2.5,1.3c-1,0.9-1.1,1.3-0.6,2.3c0.7,1.6,2,1.9,3.7,0.6c1.4-1,2.8-3.8,2.2-4.3C183.7,178.5,183.5,178.5,181.3,178.8z"/><path fill="#1e293b" d="M134.6,182.2c0,0.3,0.3,0.5,0.5,0.5c0.3,0,0.5-0.3,0.5-0.5c0-0.3-0.2-0.5-0.5-0.5C134.9,181.6,134.6,181.9,134.6,182.2z"/><path fill="#1e293b" d="M224.5,192.7c-1,0.4-1,0.4,0.2,1.2c0.6,0.4,1.2,1,1.2,1.4c0,0.4,0.4,0.7,0.8,0.7c1.1,0,1-1.2-0.1-2.5C225.8,192.7,225.3,192.5,224.5,192.7z"/><path fill="#1e293b" d="M213.8,194.5c1.1,1.5,2,1.5,2-0.1c0-0.7-0.5-1.1-1.5-1.2l-1.5-0.2L213.8,194.5z"/><path fill="#1e293b" d="M220.5,194.4c0,0.3,0.3,0.5,0.6,0.5c0.3,0,0.4-0.3,0.2-0.5c-0.2-0.3-0.4-0.5-0.6-0.5C220.6,193.8,220.5,194.1,220.5,194.4z"/><path fill="#1e293b" d="M224.6,197.6c0.5,0.9,1.1,1.4,1.4,1.1c0.8-0.8-0.2-2.7-1.3-2.7C223.7,196,223.7,196,224.6,197.6z"/><path fill="#1e293b" d="M217.4,198.2c0,1.9,0.6,2.1,2,0.8c1.6-1.5,1.5-2-0.4-2C217.6,197,217.4,197.2,217.4,198.2z"/><path fill="#1e293b" d="M222.5,199.1c-0.2,0.9-0.2,1.1,0.3,0.7c0.3-0.3,0.4-0.8,0.3-1.2C222.9,198.1,222.7,198.4,222.5,199.1z"/><path fill="#1e293b" d="M220,200.5c-0.7,1.6-0.7,1.9-0.1,2.4c0.9,0.8,1,0.7,1.4-2.1C221.5,198.1,221.1,198,220,200.5z"/><path fill="#1e293b" d="M223.2,200.7c0,0.3,0.2,0.5,0.5,0.5c0.3,0,0.7-0.3,0.8-0.5c0.2-0.3-0.1-0.5-0.5-0.5C223.6,200.2,223.2,200.4,223.2,200.7z"/><path fill="#1e293b" d="M227.4,201c0,0.5-0.9,1.6-2,2.7c-1.5,1.4-2.1,1.6-2.7,1.2c-1-0.8-3.3,1-4.2,3.2c-0.8,2-0.1,2.3,0.8,0.4c0.4-0.8,0.9-1.2,1.4-1c0.4,0.2,1.1,0.1,1.5-0.3c1.3-1.1,2.4-0.2,2.1,1.6c-0.3,1.6-0.3,1.6,2.7,1.8c1.4,0.1,1.4,0,1.1-1.6c-0.3-1.8,0.2-2.2,1.3-1.1c0.5,0.5,0.6,0.5,0.4,0.1c-0.2-0.3-0.1-0.7,0.2-1c0.8-0.5,0.6-3.2-0.3-4c-0.4-0.4-0.7-1.1-0.7-1.5c0.1-0.5-0.3-1-0.7-1.1C227.8,200.2,227.4,200.5,227.4,201z"/><path fill="#1e293b" d="M209.7,202.2l-0.9,1.5l1.2-1.2c0.6-0.6,1.1-1.3,0.9-1.5C210.7,200.8,210.2,201.4,209.7,202.2z"/><path fill="#1e293b" d="M93.6,205.4c-0.8,2.9-0.9,4.1-0.3,6.3c0.5,2.1,0.8,2.4,2,2.4c0.7,0,1.8-0.4,2.3-0.8c0.8-0.7,0.8-1.1,0.2-3.1c-0.7-2.4-2.7-5.6-3.4-5.6C94,204.4,93.7,204.9,93.6,205.4z"/><path fill="#1e293b" d="M205.6,207.5c-0.7,0.9-0.6,0.9,0.2,0.2c0.5-0.4,0.9-0.8,0.9-0.9C206.7,206.4,206.3,206.6,205.6,207.5z"/><path fill="#1e293b" d="M203.8,213.5c-0.2,0.3-0.5,0.4-0.7,0.3c-0.2-0.2-0.8,0.6-1.3,1.6c-0.5,1-1.3,2-1.7,2.1c-0.4,0.2-0.6,0.5-0.5,0.8c0.2,0.3-0.8,1-2.1,1.5c-1.5,0.6-2.9,1.8-3.7,3c-0.9,1.3-2.2,2.3-3.6,2.9c-1.8,0.7-2.4,1.2-2.8,2.6c-0.5,1.7-0.6,1.7-3,1.4c-2-0.3-2.7-0.1-3.3,0.6c-1,1.1-1.1,3-0.3,3.5c0.3,0.2,0.4,0.5,0.3,0.8c-0.2,0.3,0.3,0.9,1.1,1.5c0.8,0.6,1.5,1.8,1.7,2.9c0.3,1.9,0.3,1.9,2.4,1.5c1.5-0.2,2.2-0.1,2.5,0.4c0.4,0.6,0.8,0.5,2.6-0.3c1.7-0.7,2.3-0.8,2.9-0.3c0.4,0.4,1.1,0.5,1.4,0.3c0.4-0.2,1,0.1,1.3,0.6c0.6,0.8,0.8,0.8,2.8-0.6c2.4-1.8,3.4-3.5,2.5-4.4c-0.7-0.7-0.1-1.4,1.9-2.4c0.8-0.4,1.3-1.2,1.4-2.2c0.1-0.9,0.5-2,1-2.4c0.4-0.5,0.6-1,0.4-1.3c-0.3-0.2,0.1-0.3,0.6-0.1c0.6,0.2,1.4,0.1,1.8-0.1c0.4-0.3,0.1-0.7-1.2-1.3c-1.1-0.5-1.8-1.2-1.5-1.6c0.1-0.4-0.2-1.2-0.8-1.7c-1.3-1.1-1.4-1.9-0.3-1.9c0.4,0,0.6-0.3,0.5-0.8c-0.2-0.5,0.2-0.8,1.1-1.1c1.1-0.3,1.3-0.5,0.8-1.1c-0.5-0.6-0.3-0.8,0.8-1.3c0.7-0.4,1.4-0.8,1.4-1.1c0-0.4-2.5-0.7-3.8-0.5c-0.3,0-0.4-0.4-0.4-1C205.7,213.5,204.3,212.7,203.8,213.5z"/><path fill="#1e293b" d="M234.5,220c-0.7,1.6-0.4,4.4,0.7,4.8c0.5,0.2,0.6,0,0.2-1c-0.4-1.2-0.4-1.3,0.7-1.3c0.9,0,1-0.2,0.4-0.5c-0.5-0.3-0.5-0.6-0.1-0.8c0.9-0.5,0.7-1.5-0.2-1.2c-0.5,0.2-0.8-0.1-1-0.5C235.2,218.8,235,218.9,234.5,220z"/><path fill="#1e293b" d="M138.7,221.9c0.2,0.6,1.3,1.7,2.5,2.5c1.2,0.8,2.8,2.2,3.4,3.2c0.7,1,2,2.2,3,2.7c1.4,0.6,1.9,1.3,2.2,2.6c0.2,1.2,1,2.3,2.3,3.3c1.1,0.8,2.8,2.8,3.8,4.2c2.4,3.6,9.3,8.3,12.3,8.3c2.2,0.1,2.3-0.1,2.8-3.7c0.4-2.8-0.2-4-2.1-4c-1.4,0-2.4-1-2.4-2.2c0-0.6-0.6-1-1.9-1.3c-1.9-0.3-1.9-0.4-1.1-1.6c0.8-1.2,0.7-1.3-0.5-1.8c-0.7-0.3-1.4-0.7-1.6-1.1c-0.2-0.3-0.6-0.4-0.8-0.2c-0.3,0.2-1.4-0.5-2.4-1.4c-1.2-1.1-2-1.5-2.2-1.1c-0.3,0.4-1-0.1-2-1.1c-0.8-0.9-2.6-2.2-3.9-2.9c-1.3-0.7-2.6-1.8-2.9-2.4c-0.6-1.6-2.4-2.4-5.9-2.9C138.5,220.8,138.4,220.8,138.7,221.9z"/><path fill="#1e293b" d="M225.5,223.6c-0.8,0.8-2.1,1.2-5.5,1.6c-3.1,0.3-4.5,0.7-4.8,1.3c-0.3,0.4-0.7,0.7-1,0.5c-0.5-0.4-1.7,2.1-1.6,3.6c0,0.5-0.3,1.2-0.7,1.5c-0.4,0.3-0.7,1.1-0.7,1.8c0,0.6-0.4,1.6-0.8,2.1c-1.1,1.5-1,2.4,0.3,2.4c1,0,1.1,0.3,0.9,2.4c-0.2,2.2-0.1,2.4,0.9,2.3c0.9-0.2,1.1-0.6,1.2-3.4c0.1-2.7,0.4-3.4,1.2-3.9c1.1-0.6,1.3-0.4,1.1,1.1c-0.1,0.5,0.3,1,0.7,1.2c0.4,0.2,0.8,0.7,0.8,1.2c0,1,0.3,1,1.9-0.1c1-0.7,1.2-1.1,0.7-1.6c-0.3-0.4-0.5-1-0.4-1.4c0.2-0.4-0.5-1.2-1.4-1.9c-0.8-0.6-1.3-1.2-0.9-1.2c0.4,0,1.6-0.8,2.8-1.9c1.2-1,1.9-1.9,1.6-1.9c-1.3,0-4.2,1.4-4.8,2.2c-0.9,1.2-1.8,1.2-3-0.1c-0.7-0.7-0.7-1.3-0.4-2.3c0.4-1.2,1.2-1.4,6.2-2.5c5.1-1.1,5.7-1.4,6.4-2.8C227.1,222.2,227,222.1,225.5,223.6z"/><path fill="#1e293b" d="M177.3,224.1c-0.2,0.3-0.1,0.5,0.2,0.5c0.3,0,0.6-0.3,0.6-0.5c0-0.3-0.1-0.5-0.2-0.5C177.7,223.5,177.5,223.8,177.3,224.1z"/><path fill="#1e293b" d="M233.8,225.7c0,0.3,0.3,0.4,0.5,0.2c0.3-0.2,0.5-0.4,0.5-0.6c0-0.1-0.2-0.2-0.5-0.2C234.1,225.1,233.8,225.4,233.8,225.7z"/><path fill="#1e293b" d="M237.6,230.2c-2.2,1-1.8,1.6,0.5,0.8c1-0.3,2.3-0.6,3-0.6c0.7,0,1.1-0.2,1-0.5C241.5,229.2,239.7,229.3,237.6,230.2z"/><path fill="#1e293b" d="M144.2,232c0,0.3,0.5,0.8,1.1,1.1c0.7,0.4,1.1,0.4,1.1,0.1s-0.5-0.8-1.1-1.1C144.5,231.7,144.2,231.7,144.2,232z"/><path fill="#1e293b" d="M230.7,233c-0.6,0.4-0.5,0.5,0.2,0.8c1,0.4,1.9,0,1.9-0.8C232.7,232.5,231.7,232.4,230.7,233z"/><path fill="#1e293b" d="M149.2,238.9c0.2,0.3,0.4,0.5,0.6,0.5c0.1,0,0.2-0.3,0.2-0.5c0-0.3-0.3-0.5-0.6-0.5C149.1,238.4,149,238.6,149.2,238.9z"/><path fill="#1e293b" d="M169.5,239.3c-0.6,0.6-0.4,1.2,0.4,1.2c0.4,0,0.8,0.4,1.1,0.8c0.2,0.4,0.8,0.8,1.4,0.8c1.4,0,1.3-0.2-0.2-1.8C170.8,238.9,170.1,238.7,169.5,239.3z"/><path fill="#1e293b" d="M219.5,240.2c0,0.4,0.4,0.7,0.8,0.7c0.4,0,0.8-0.3,0.8-0.7c0-0.4-0.4-0.7-0.8-0.7C219.9,239.5,219.5,239.8,219.5,240.2z"/><path fill="#1e293b" d="M176.5,241.9c0,0.4,0.3,0.6,0.5,0.5c0.3-0.2,0.5-0.5,0.5-0.8c0-0.3-0.2-0.5-0.5-0.5C176.8,241.1,176.5,241.4,176.5,241.9z"/><path fill="#1e293b" d="M227.7,246.4c-2.6,1.2-6,4-5.5,4.6c0.3,0.2,2.1-0.8,4.2-2.2C231.5,245.2,231.9,244.4,227.7,246.4z"/><path fill="#1e293b" d="M241.2,248.5c0,0.3,0.3,0.4,0.5,0.2c0.3-0.2,0.5-0.4,0.5-0.6c0-0.1-0.2-0.2-0.5-0.2C241.5,247.9,241.2,248.2,241.2,248.5z"/><path fill="#1e293b" d="M215.5,248.8c-1.2,0.2-2.3,0.5-2.7,0.8c-0.6,0.6,3.8,0.1,5-0.7c0.4-0.3,0.6-0.4,0.3-0.4C217.9,248.6,216.7,248.7,215.5,248.8z"/><path fill="#1e293b" d="M170.7,250.1c-0.6,1.1-0.3,1.5,1.1,1.5c0.6,0,0.8,0.2,0.7,0.5c-0.2,0.3,1.6,0.5,5.1,0.6c3,0.1,6.9,0.1,8.6,0.1c5.9,0.1,12.5-0.4,12.8-0.9c0.2-0.3-0.4-0.4-1.4-0.3c-0.9,0.1-1.6,0.1-1.6-0.2c0-0.2-0.9-0.4-2-0.4c-1.1,0-2.3-0.3-2.8-0.7c-1.1-1-4.8-1.2-6.3-0.4c-1.4,0.7-5.6,0.8-6.3,0.2c-0.3-0.3-2.1-0.6-4.1-0.7C172,249.3,171.2,249.4,170.7,250.1z"/><path fill="#1e293b" d="M192.9,249.9c0.4,0.2,0.8,0.1,1-0.1c0.2-0.2-0.1-0.3-0.7-0.3C192.6,249.6,192.4,249.7,192.9,249.9z"/><path fill="#1e293b" d="M206.5,250.5c0.2,0.3-0.5,0.6-1.4,0.7c-1,0.1-1.7,0.4-1.6,0.7c0.2,0.6,1.1,0.5,4-0.8l2.2-1h-1.8C207,250.1,206.3,250.3,206.5,250.5z"/><path fill="#1e293b" d="M201.2,251.7c-0.2,0.3,0.1,0.5,0.5,0.5c0.5,0,0.8-0.3,0.8-0.5c0-0.3-0.2-0.5-0.5-0.5C201.7,251.1,201.3,251.3,201.2,251.7z"/><path fill="#1e293b" d="M210.6,252.1c-0.5,0.3-0.2,0.5,1,0.8c2,0.4,3.1-0.1,2.1-0.8C212.6,251.6,211.5,251.6,210.6,252.1z"/></g></g></g>
</svg>