<?xml version="1.0" encoding="utf-8"?>
<!-- Svg Vector Icons : http://www.onlinewebfonts.com/icon -->
<!DOCTYPE svg PUBLIC "-//W3C//DTD SVG 1.1//EN" "http://www.w3.org/Graphics/SVG/1.1/DTD/svg11.dtd">
<svg version="1.1" xmlns="http://www.w3.org/2000/svg" xmlns:xlink="http://www.w3.org/1999/xlink" x="0px" y="0px" viewBox="0 0 256 256" enable-background="new 0 0 256 256" xml:space="preserve">
<metadata> Svg Vector Icons : http://www.onlinewebfonts.com/icon </metadata>
<g><g><g><path fill="#000000" d="M205.8,10.5c-0.5,0.2-0.8,0.7-0.8,1.1c0,0.8-2.5,3.5-3.1,3.5c-0.3,0-0.6-1-0.6-2.2l-0.1-2.2l-2.3,2.3c-1.3,1.2-2.8,2.9-3.3,3.7l-1,1.4v-1.7c0-1.3,0.3-2.1,1.4-3.4c0.8-0.9,1.3-1.8,1.2-1.9c-0.6-0.6-4.3,0.8-5.6,2.1c-0.8,0.8-1.9,1.4-2.5,1.4c-0.7,0-1.3,0.5-1.8,1.4c-1.7,3-1.6,3-3.4,1.9c-2.2-1.3-2.5-1.3-3.5,0.6c-0.7,1.5-0.8,1.6-1.8,0.9c-1-0.6-1.2-0.6-2.8,0.5c-1,0.6-2.1,1.8-2.6,2.5c-1.1,1.8-1.8,1.8-1.2-0.1c0.5-1.8,0.5-1.8,0-1.8c-0.2,0-1.1,1.1-1.8,2.5c-1.4,2.4-1.5,2.5-2.9,2.1c-3.8-1-4.3-0.9-4.8,0.3c-0.3,0.6-0.8,1.1-1.2,1.1c-1.1,0-4.9,3.9-4.3,4.5c0.6,0.6,0,1.5-1.1,1.5c-0.7,0-0.9,0.2-0.7,1.1c0.1,0.6,0,1.4-0.4,1.9c-0.6,0.8-0.6,0.8-1.6,0c-0.9-0.8-1-0.8-1.9,0.1c-0.8,0.8-0.9,1.1-0.4,1.7c0.5,0.6,0.4,0.8-0.5,1.2c-0.6,0.3-1.5,0.6-2,0.5c-1-0.1-2.6,1.3-2.4,2.2c0.1,0.6-0.6,1.2-2.5,1.8c-1,0.4-1.2,0.6-1,1.4c0.2,0.8,0,1-1.2,1.2c-1.9,0.4-2.2,1.3-0.9,2.7l1,1.1l-1.1,0.2c-0.7,0.1-1.1,0.5-1.2,1.2s-0.5,1.1-1,1.1c-1.4,0-3.3,2.9-2.4,3.5c0.3,0.2,0.5,0.8,0.5,1.4c0,0.8-0.2,1.1-1.1,1.1c-1.2,0-4.3,3.4-3.8,4.1c0.4,0.6-0.8,1-1.9,0.6c-1.2-0.3-4.6,2.7-5.5,4.9c-0.9,2-2.8,3.5-4.5,3.5c-1.1,0-1.5,0.3-2.3,1.7l-0.9,1.7l-2.6-0.3c-3-0.3-3.7,0.3-2,1.6c1.4,1.1,1,1.5-1.2,1.2c-1.5-0.2-1.8-0.1-2,0.7c-0.1,0.6-0.6,1-1.2,1c-1.2,0-3.7,1.2-3.7,1.9c0,0.3,0.4,0.8,0.8,1.1c0.7,0.6,0.6,0.6-0.9,0.9c-1.7,0.3-1.7,0.4-1.7,2.4c0,1.3,0.2,2.1,0.7,2.4c0.7,0.4,0.6,0.6-0.2,1.4c-1.2,1.2-1.1,2,0.6,2.4l1.3,0.2l-1,0.9c-1.4,1.2-1.2,1.7,0.6,1.7c1.7,0,2.3,1.2,0.9,1.7c-1.1,0.5-0.8,1.1,0.6,1.2h1.2l-1.2,0.5c-0.6,0.3-1.5,0.6-1.9,0.6c-1.4,0.1-1.9,1-1.1,1.8c0.6,0.7,2.1,0.6,2.1-0.1c0-0.2,0.4-0.3,0.9-0.3c1,0,1.1,1.5,0,2.1c-0.6,0.4-0.6,0.5,0.1,0.7c0.4,0.1,0.7,0.5,0.6,0.6c-0.3,0.4-1.1,0.4-1.9-0.1c-0.5-0.3-0.6,0.1-0.6,1.3c0,1.6,0.1,1.7,2.5,2.8c1.4,0.6,2.5,1.4,2.5,1.6c0,0.3,0.2,0.4,0.5,0.2c0.3-0.2,0.8,0,1.2,0.2c1.3,1.1,4.6,0.2,7.7-2.1c1.6-1.2,3.3-2.7,3.9-3.3c0.6-0.6,1.5-1.1,2.1-1.1c1.3,0,1.9-0.7,2.4-2.7c0.1-0.8,0.5-1.5,0.7-1.5c0.3,0,0.4,0.4,0.2,0.8c-0.3,1.1,0.9,2.6,1.8,2.3c0.5-0.2,0.7,0,0.7,1c0,3,0.6,4.7,1.8,5c1,0.3,1.1,0.5,1,1.7c-0.4,2.3,1.8,6.7,4.2,8.9c1,0.9,1.3,2.1,0.6,2.1c-1,0-1.1,2,0,3.3c0.7,0.9,0.9,1.7,0.7,2.5c-0.3,1.2-0.3,1.2,2.8,1c2.8-0.1,3.1-0.2,3.2-1.1c0-1.6,0.7-3,1.3-3c0.3,0,0.7-0.2,0.8-0.4c0.2-0.6,4.1-0.8,4.8-0.4c0.7,0.4,2.9-3.5,3.5-6.1c0.2-1.2,0.4-3,0.4-4.1c0-1.4,0.1-1.9,0.6-1.9c0.9,0,0.9-1.2,0-2.8c-0.9-1.7-0.8-2.3,0.4-2.3c2,0,3.1-0.6,3.9-2c0.6-1.1,0.8-1.2,1-0.6c0.2,1.1,0.4,1,1.5-0.1c1.5-1.5,1.2-1.9-1.3-1.6c-1.7,0.2-2.5,0.1-3.3-0.5c-0.6-0.4-1.4-0.7-1.9-0.7c-0.5,0-0.8-0.2-0.8-0.5c0-0.6,1.8-0.6,3.9,0.2c2.6,0.9,3.6,0.9,5.5-0.5c0.9-0.6,1.9-1.2,2.2-1.2c0.7,0-0.9-2.7-1.8-3c-0.5-0.1-1.4-0.8-2-1.5s-1.8-1.5-2.6-1.7c-1.1-0.3-1.6-0.8-1.7-1.4c0-0.5-0.2-2-0.4-3.3c-0.3-2-0.2-2.4,0.5-2.7c0.6-0.2,0.7-0.7,0.5-3.1c-0.2-2.6-0.2-2.7,0.7-2.4c1.1,0.3,1.8-0.4,1.8-2c0-0.7,0.3-1,1.1-1c0.6,0,2.1-1,3.6-2.5c1.7-1.6,2.8-2.3,3.2-2.1c0.8,0.5,5.3-2.7,6-4.3c0.3-0.7,0.9-1.6,1.4-2c0.9-0.8,0.9-0.8-0.1-1.9l-1-1.1l1.2-1.3c0.9-0.9,1.2-1.6,0.9-2.3c-0.2-0.8,0-1.2,1.4-1.7c0.9-0.4,1.7-0.9,1.7-1.1c0-0.2,0.6-1.1,1.3-1.9l1.3-1.6l1.3,1c1.1,0.8,1.7,0.9,3.6,0.6c1.9-0.3,2.5-0.2,3.4,0.5c0.6,0.5,1.6,0.9,2.2,0.9c1.2,0,1.9,1.7,1.4,3c-0.2,0.4-0.1,0.8,0.1,0.9c0.3,0.2,0.5,0.7,0.5,1.2c0,0.7-0.3,0.9-1.4,0.9c-1.2,0-2.2,0.8-6,4.7c-3.6,3.6-4.8,4.5-5,4.1c-0.3-0.6-0.5-0.5-0.7,0.2c-0.7,2.4-1.4,3.2-2.8,3.2c-0.7,0-1.4,0.3-1.5,0.7c-0.1,0.4-0.7,1.3-1.3,2c-1.3,1.5-1.4,2.4-0.4,2.8c0.6,0.2,0.6,0.6,0.4,2.1c-0.2,1.3-0.1,2.2,0.4,3c0.6,0.8,0.6,1.8,0.4,4.1c-0.3,2.9-0.2,3,1.2,4.4c0.8,0.8,1.8,1.4,2.4,1.4c0.6,0,1,0.2,1,0.5c0,0.3,0.5,0.4,1.2,0.2c1-0.3,1.2-0.1,1.2,0.9c0,1.4,1.5,2.2,3.1,1.6c0.6-0.2,1.8-0.4,2.5-0.4c0.8,0,1.9-0.3,2.4-0.7c0.5-0.4,1.1-0.6,1.2-0.4c0.2,0.1,0.8,0,1.4-0.3c0.5-0.3,1.7-0.6,2.5-0.7c0.9-0.1,2.1-0.5,2.7-0.8c0.6-0.5,1.3-0.6,1.7-0.3c0.4,0.2,0.9,0.2,1.2-0.1c0.3-0.2,0.9-0.4,1.2-0.2c0.6,0.2,4.5-0.9,5.7-1.6c0.3-0.2,0.5,0,0.3,0.7c-0.3,1.5,0.6,2,3.5,2.3c1.7,0.2,2.7,0.5,3.1,1.1c1.2,1.7,0.3,2-2.4,1c-1.3-0.5-1.7-0.4-2.4,0.2c-0.5,0.4-1.2,0.8-1.6,0.8c-0.4,0-0.8,0.2-1,0.5c-0.1,0.2-0.6,0.3-1,0.1c-0.6-0.2-0.7,0-0.5,0.6c0.5,1.6-0.7,2.2-4,1.8c-3.9-0.5-11.4-0.6-11.4-0.1c0,0.2-0.3,0.4-0.7,0.4c-1.2,0-5.2,1.6-5.4,2.1c-0.3,0.9,0.3,3,0.9,3c0.3,0,0.5,0.4,0.4,1.1c-0.1,0.8,0.1,1.2,1,1.6c0.7,0.3,1.3,0.4,1.4,0.1c0.8-1.3,1.1-0.1,0.8,3.3c-0.3,4.4-0.9,5.4-3.2,5.4c-1.2,0-1.7-0.3-2.4-1.4c-1.4-2.3-3.1-3.4-4.8-3c-2,0.4-3.6,1.9-3.6,3.4c0,0.7-0.4,1.4-0.9,1.8c-0.7,0.5-0.9,1.1-0.9,3.2c0,1.5,0.3,3.6,0.6,4.8c0.8,2.7,0.6,4.1-0.7,4.2c-4.9,0.2-4.7,0.1-4.8,1.4c-0.1,1-0.6,1.5-2.2,2.2c-2.6,1.2-3.9,1-4.7-1c-0.6-1.4-0.6-1.5-2.5-1.2c-1.1,0.1-4.2,1.2-6.8,2.4c-2.7,1.2-5.7,2.2-6.8,2.4c-1.7,0.3-2,0.5-2,1.4c0,1.3,0.1,1.2-1.8,0.6c-0.9-0.3-1.5-0.9-1.7-1.6c-0.2-0.8-0.6-1.1-1.3-1.1c-0.6,0-1.3-0.3-1.6-0.7c-0.8-1-2.3-0.8-5.4,0.6c-2.6,1.3-5,1.7-5.5,1c-0.1-0.2,0.1-0.6,0.5-0.9c1.1-0.9,0.8-1.4-0.6-1.4c-2.2,0-3.6-0.7-3.9-2c-0.1-0.6-0.7-1.4-1.2-1.7c-0.5-0.3-0.9-0.8-0.9-1.2c0-1,1.4-3.5,2.4-4.3c0.5-0.4,0.9-1.2,1-1.7c0.1-0.6,0.5-0.9,1.2-0.8c1.2,0.1,1.8-0.6,1.8-1.9c0-0.6-0.4-0.8-1.3-0.8c-1.2,0-1.4-0.2-1.5-1.3c-0.1-1.1-0.3-1.2-2.1-1.4c-1.9-0.1-2-0.1-2,1.2c0,1.4-1.1,2-1.5,0.8c-0.1-0.4-0.5-0.2-1,0.4c-0.5,0.7-1.1,0.9-1.8,0.8c-1.2-0.2-1.2-0.2-1.1,2.2c0.1,1.4-0.1,2.9-0.3,3.4c-0.4,0.7-0.3,0.8,0.3,0.6c1.1-0.4,1.8,0.5,1.8,2.3c0,0.9,0.4,2.3,1,3.1l1,1.6l-1.1,0.4c-0.8,0.3-0.8,0.5-0.2,0.5c0.5,0,0.8,0.4,0.8,1.2c0,0.6,0.3,1.2,0.6,1.3c0.3,0.1,0,0.3-0.7,0.3c-0.8,0-1.4,0.4-1.6,0.8c-0.2,0.5-0.6,1.1-1,1.5c-0.6,0.6-0.7,0.6-1.1,0c-0.2-0.4-0.4-0.8-0.4-1c0-0.5-3.9,0.2-4.2,0.7c-0.2,0.3-0.1,0.7,0.1,0.9c0.9,0.9,0.4,1.3-0.7,0.6c-1.4-0.9-3-0.9-5.3,0c-1.4,0.6-1.8,1-1.8,1.8c0,0.6,0.2,1.1,0.5,1.1c0.3,0,0.5,0.3,0.5,0.7c0,0.4,0.2,0.7,0.5,0.7c0.7,0,0.6,1.2-0.2,1.8c-1,0.8-3,0.2-3-0.9c0-0.5,0.2-0.9,0.5-0.9c0.6,0,0.6-1.2,0-1.6c-0.8-0.5-2.1,0.6-2.7,2.4c-0.3,1-1.4,2.6-2.4,3.6c-1.2,1.2-1.7,2-1.3,2.3c0.9,0.6,0,1.2-1.7,1.2c-1,0-2.2,0.4-2.9,0.9s-1.5,0.9-1.9,0.9c-2.1,0-3.1,1-3.4,3.3c-0.4,2.6-0.7,3-3.9,4c-2.1,0.6-2.5,1-2.4,1.8c0.1,1.2-0.4,1.4-3.7,1.2c-2.1-0.2-2.8-0.4-2.9-1.1c-0.2-0.6-0.6-0.9-1.6-0.9c-1.5,0-1.7,0.6-0.7,2.1c0.4,0.5,0.7,1.6,0.8,2.5l0.1,1.6l-3,0.1c-2.3,0.1-3.2,0-3.6-0.6c-0.6-0.8-2.8-1-2.8-0.2c0,0.2-0.7,0.5-1.6,0.5c-1.9,0-4,0.7-4,1.4c0,0.2,0.4,0.5,0.8,0.5c0.5,0,0.8,0.4,0.9,0.9s-0.2,0.9-0.7,0.9c-1.4,0,1,1.3,2.4,1.4c0.8,0,2.3,0.4,3.4,0.9c1.1,0.5,2.4,0.9,2.9,0.9c0.6,0,0.7,0.2,0.6,0.6c-0.2,0.4,0.2,0.9,1.1,1.4c1,0.5,1.3,1,1.2,1.6c-0.1,0.6,0.3,1.3,1.2,2.1c0.8,0.7,1.7,1.2,1.8,1.2c0.8,0,1.4,1.8,1,3c-0.4,0.8-0.3,1.3,0.2,1.7c0.4,0.3,0.9,1,1.2,1.5c0.5,1,0.5,1-0.5,0.1c-0.9-0.8-1-0.8-1.3-0.1c-0.2,0.4-0.2,1.6,0,2.6c0.1,1,0.1,1.9-0.1,2.2c-0.2,0.2-0.7,1.8-1.2,3.5c-0.7,2.9-0.9,3.1-2.1,3.1c-0.7,0-2.1-0.3-3.1-0.6c-1.2-0.4-2-0.5-2.2-0.2c-0.5,0.7-6.2,0.5-9.9-0.4c-3.1-0.7-3.7-0.8-5.1-0.2c-1.3,0.5-2.1,0.6-3.8,0.1c-3.2-0.7-4.4-0.6-4.9,0.4c-0.3,0.6-1,0.9-1.7,0.9c-2.5,0-4.2,2.3-2.1,3c1.2,0.4,1.9,2.1,1.3,3.5c-0.2,0.6-0.4,3.1-0.4,5.5c0.1,4.5-0.6,8.1-1.9,9.6c-1,1.2-1.5,4.2-0.6,4.2c0.3,0,0.8-0.2,1.1-0.5c0.4-0.4,0.6-0.4,0.8,0c0.2,0.3,0,0.6-0.6,0.8c-1.3,0.4-1.2,1.2,0.1,1c1.1-0.2,1.2-0.2,1,2.8c0,1.7-0.3,3.5-0.4,4c-0.3,0.9-0.1,0.9,2.6,0.9c1.6,0,3.4-0.3,3.9-0.6c0.6-0.3,1.3-0.6,1.8-0.6c0.9,0,4.3,3.5,4.3,4.4c0,0.8,1.5,2.1,2.4,2.1c0.4,0,1.1-0.3,1.4-0.7c0.4-0.4,1.7-1.2,2.8-1.8c1.7-0.9,2.9-1.1,7.2-1.2l5.3-0.1l0.8-1.7c0.6-1.2,1.2-1.8,2.1-2c2.6-0.6,2.9-0.7,2.9-1.7c0-0.6,1-1.9,2.3-3.1c2.1-2.1,2.2-2.2,1.4-2.9c-2.2-1.8-1.4-4.8,2.2-8.2c1.1-1,1.9-2,1.8-2.2c-0.5-0.7,1.3-1.8,3.6-2.1c1.3-0.2,2.4-0.6,2.6-1.2c0.2-0.4,1.4-1.2,2.5-1.6c2.4-0.9,2.9-2,2.1-4.7c-0.6-2.2,0-3.7,2.1-4.9c1.2-0.7,1.7-0.7,2.7-0.4c0.7,0.2,2,0.5,2.9,0.5c0.9,0,2.1,0.4,2.8,0.9c2,1.6,3.9,1,8.2-2.4c1.2-1,2.5-1.8,2.8-1.8s1.3-0.6,2.3-1.4c1.3-1,2.2-1.4,3.6-1.4c3.1,0,4.7,1.3,6.8,5.8c1.2,2.6,2.4,4.2,3.3,4.9c0.8,0.6,2.8,2.1,4.5,3.5c1.8,1.5,3.9,2.8,5.4,3.2c1.7,0.6,2.7,1.2,3,1.9c0.3,0.7,0.8,1,1.4,0.9c0.6-0.1,0.9,0.1,0.8,0.5c-0.1,0.4,0.2,0.6,0.7,0.4c1-0.3,2.1,0.7,1.8,1.7c-0.3,0.8,1,1.7,2.3,1.8c0.8,0,1.2,0.6,1.9,2.5c1.5,4,1.7,4.8,0.8,4.8c-0.4,0-0.7,0.4-0.7,0.8c0,0.4-0.3,1.1-0.7,1.6c-0.8,0.9-0.5,1.8,0.6,1.8c0.9,0,3.2-2.7,3.2-3.6c0-0.4,0.6-1.1,1.5-1.4c1.2-0.6,1.4-0.9,1.2-1.8c-0.2-1.2-0.6-1.6-2.3-2.6c-0.8-0.5-0.7-0.6,0.1-2.3c0.6-1.2,1.2-1.8,1.9-1.9c0.6-0.1,1,0,1,0.3c0,0.3,0.4,0.5,0.9,0.5c0.5,0,1.6,0.6,2.4,1.4c1.3,1.3,1.5,1.3,1.9,0.7c0.2-0.5,0.3-1.1,0.2-1.4c-0.4-1.1-6.6-5.2-9.1-6c-2.5-0.9-3.2-1.5-2.1-2.2c1.3-0.7,0.3-1.3-2.4-1.3c-2.5,0-2.7-0.1-5-2.4c-1.8-1.8-2.6-3-3-4.6c-0.5-2-0.8-2.4-2.7-3.3c-3.2-1.6-5.4-5.1-3.9-6.3c0.6-0.4,0.5-0.6,0-1.5c-1.1-1.6-0.8-2.1,1.4-2.7c1.2-0.3,2.1-0.7,2.1-0.9c0-0.6,2.7-0.4,3,0.2c0.2,0.3,0.1,0.6-0.2,0.7c-0.7,0.2-0.7,1.2,0.2,2.9c0.6,1.1,0.8,1.3,1.3,0.9c0.3-0.3,0.7-1,0.9-1.7c0.3-1,0.4-1.1,1.2-0.6c0.5,0.3,1.2,1.2,1.7,2.2c0.4,0.9,1.1,2.2,1.7,2.7c0.6,0.7,0.7,1.1,0.3,1.1c-0.4,0,0.3,0.9,1.4,2.1c1.3,1.4,2.4,2.1,3.2,2.1c1.3,0,3.8,1.2,4.3,2.1c0.2,0.4,2.1,1.7,4.3,3c2.2,1.3,4.1,2.7,4.2,3c0.1,0.4,0.9,1,1.6,1.4c1.1,0.6,1.2,0.8,0.8,1.4c-0.3,0.4-0.4,1.3-0.2,2.4c0.1,1,0.1,1.9-0.1,2.1c-0.2,0.1-0.4,0.9-0.3,1.7c0.1,1.1,0.5,1.7,1.6,2.4c0.8,0.5,1.4,1.3,1.4,1.8c0,1.3,2,3.2,3.4,3.2c1.4,0,2.1,0.9,0.8,1.2c-0.9,0.2-0.9,0.3-0.2,1.5c0.7,1.3,0.9,1.3,3.5,1.1c2-0.2,3.1-0.1,4.5,0.6c1,0.5,1.8,1,1.8,1.2c0,0.8-1.3,0.8-3.1,0c-3.6-1.6-6.2,0.1-4.3,2.8c0.6,0.7,0.9,1.7,0.7,2.1c-0.4,1,0.6,2.1,1.4,1.5c0.4-0.4,0.8-0.2,1.4,0.7c0.6,0.8,0.9,1,1.2,0.6c0.2-0.3,0.7-0.4,1.3-0.3c1.2,0.3,1.2-0.1,0.3-2.3c-0.9-2.1-0.9-2.4,0.2-2.1c0.5,0.1,0.9,0.4,0.9,0.6c0,0.2,0.3,0.3,0.7,0.1c0.9-0.4,0.9-1.1,0-1.1s-1.4-1.5-0.6-1.9c1-0.6,1.9-0.4,3,0.6l1.1,1.1l-0.2-1.6c-0.2-1.4-0.6-1.8-2.7-3.1c-1.3-0.8-2.7-1.6-3-1.7c-0.4-0.1-0.3-0.3,0.1-0.6c0.3-0.2,0.5-0.7,0.3-1.1c-0.2-0.4-0.1-0.9,0.2-1.1c0.3-0.1,0.6,0,0.8,0.4c0.1,0.4,0.5,0.6,0.7,0.5c0.2-0.2,0-0.8-0.7-1.5c-1.9-2-2.6-3.4-2.3-4.8c0.2-1.3,1.5-2.2,1.5-1.1c0,0.8,0.6,1.2,2.2,1.4c0.7,0,1.5,0.5,1.8,1c0.3,0.4,0.7,0.6,0.9,0.5c0.1-0.2-0.1-0.6-0.6-1c-0.6-0.4-0.7-0.7-0.3-0.9c0.3-0.2,1,0,1.5,0.5c0.5,0.4,0.9,0.6,0.9,0.5c0-0.2-0.6-0.9-1.4-1.5c-1.7-1.4-1.8-2-0.3-2c0.6,0,1.2-0.2,1.4-0.5c0.1-0.2,0.8-0.4,1.5-0.4s1.6,0,1.9,0c1.2,0,4.4,0.6,4.8,0.9c0.3,0.2,1.1,0.5,1.8,0.6l1.3,0.3l-1,1c-1.5,1.4-0.8,1.6,0.9,0.2c0.8-0.6,1.7-1.2,1.9-1.2c0.3,0,1-0.6,1.6-1.2c1-1.1,1.5-1.2,4.5-1.3c2.7,0,3.4-0.2,3.5-0.8c0.1-0.5-0.5-0.9-1.7-1.2c-1.4-0.5-2.1-1.1-3.2-2.9c-0.8-1.3-1.6-2.3-1.9-2.3c-0.8,0-0.5-1.3,0.4-1.8c0.6-0.3,1-1.2,1.2-2.3c0.2-1.4,0.5-1.8,1.2-1.8c0.9,0,1.2-0.5,1.6-3.8c0.3-2.5,1.6-4.3,3.2-4.7c1.5-0.4,2.3-1.8,1.6-3c-0.6-1.3-0.6-1.3,1.4-2.4c1-0.5,2.3-1.7,2.9-2.5c1.2-1.8,2.5-2.5,4.4-2.5c0.7,0,1.6-0.3,1.8-0.6c0.5-0.5,0.7-0.5,1,0.1c0.6,0.8,0.6-24,0.1-103.2l-0.3-57.8l-2,1.1c-1.7,0.9-2.4,1-5.3,0.8c-2.7-0.2-3.7-0.5-5.3-1.6c-3-2-2.9-2.2,0.7-2.2c3.6,0,5.4-0.5,5.9-1.7c0.3-0.9-0.6-1.6-2.3-1.6c-0.7,0-2.5-0.7-4-1.5c-2.7-1.5-2.7-1.5-3.5-0.6c-0.4,0.5-1,1.5-1.2,2.2c-0.6,1.4-1.7,1.7-2.1,0.6c-0.1-0.4,0.2-1.5,0.7-2.5c0.5-1,0.8-1.9,0.6-2.1C208.3,9.8,206.7,9.9,205.8,10.5z M201.5,209.7c0.1,0.2,0.1,0.5-0.2,0.5c-0.2,0-0.6-0.2-0.7-0.5c-0.1-0.3-0.1-0.5,0.2-0.5C201,209.3,201.4,209.5,201.5,209.7z"/><path fill="#000000" d="M54.3,106.7c0.1,0.9,0,1.3-0.6,1.4c-0.6,0.2-0.7,0.4-0.4,1.1c0.8,1.4,0.6,2-0.6,1.7c-1.5-0.4-2,0.5-1,1.6c0.7,0.8,0.7,0.9,0,1.2c-0.5,0.2-0.6,0.6-0.5,1.4c0.2,0.7-0.1,1.7-0.7,2.7c-0.8,1.3-0.9,1.6-0.3,1.8c0.4,0.2,0.9,0,1.1-0.5c0.3-0.4,0.7-0.6,1.2-0.5c0.7,0.2,0.6,0.5-0.2,2.4c-1.2,2.7-0.7,3.3,1.5,1.8c0.9-0.6,1.8-1.2,1.9-1.2c0.5,0,0.3,1.4-0.3,2.3c-0.5,0.7-0.5,1.1,0,1.8c0.4,0.7,0.3,1.2-0.6,2.7l-1.2,1.9l1.2,0.3c0.6,0.1,1.4,0.1,1.7,0s1.8-0.4,3.5-0.5l3-0.2l-1.1,1.4c-1.2,1.7-0.8,2.9,1.2,3.1c1.1,0.1,1.2,0.3,1,1.2c-0.1,0.6-0.3,1.8-0.3,2.7v1.7l-2.9,0.5c-1.7,0.3-3.2,0.9-3.8,1.4l-0.9,0.9h1c1.2,0,1.8,1.4,1.1,2.8c-0.3,0.5-1.5,1.5-2.8,2.1c-1.9,1-2.2,1.3-1.8,1.8c0.4,0.4,1.4,0.6,2.6,0.6c1.1,0,2.7,0.3,3.5,0.7c1.3,0.7,2.4,0.7,4.2,0c0.8-0.3,0.8-0.3,0,1.1c-0.8,1.4-0.9,1.5-3.1,1.2c-2.5-0.3-3.4,0.2-5,2.6c-0.5,0.7-1.8,1.9-2.8,2.6c-1.9,1.2-2,1.2-1,1.8c0.9,0.4,1.2,0.3,2-0.4c1.1-1.1,3.8-1.8,4.9-1.2s2.1,0.1,2.1-0.9c0-0.8,0.5-0.9,4.3-1.2c2.3-0.1,6.4-0.4,9-0.5c3.7-0.1,5.2-0.4,7-1.2c3-1.4,3.3-2.7,0.6-2.7c-2.2,0-2.8-0.6-1.2-1.3c0.6-0.3,1.8-1.2,2.8-1.9c1.3-1.2,1.7-1.8,1.7-3c0-1.7-0.6-2.4-2.7-3c-1-0.3-1.7-0.2-2.4,0.3c-1.6,1.1-2.4,0.5-1.7-1.2c0.5-1.3,0.5-1.6-0.7-2.5c-0.9-0.7-1.3-1.4-1.3-2.4c0-1.7-2.5-5.3-3.7-5.3c-1.1,0-2.1-1.5-2.5-3.8c-0.2-1.2-0.9-2.2-2.3-3.4c-1.8-1.6-2-1.7-4.4-1.4c-1.4,0.1-2.9,0-3.2-0.2c-0.5-0.3-0.4-0.5,0.7-0.5c0.8,0,2-0.3,2.8-0.6c1.2-0.6,1.2-0.7,0.6-1c-0.7-0.3-0.6-0.5,0.8-1.8c1-0.8,2-2.4,2.5-3.8c0.9-2.4,0.9-2.4,0-2.9c-0.5-0.2-2.9-0.5-5.3-0.5c-3.4,0-4.4-0.1-4.4-0.6c0-0.8,1.7-2.3,3.5-3.2c1.7-0.9,2.4-2.1,1.3-2.5c-0.4-0.1-1.8,0-3.1,0.3c-1.8,0.4-2.7,0.5-3.4,0C54.5,105.2,54,105.3,54.3,106.7z"/><path fill="#000000" d="M124.4,111.6c-0.8,0.3-1.8,1-2.2,1.8c-0.6,1-1.2,1.3-3,1.6c-2.4,0.3-3.5,1.1-3.2,2.4c0.2,1.4,1.2,1.2,2.1-0.2c0.8-1.4,1-1.4,3.9-1.4c1.9,0,3.2-0.2,3.6-0.6c0.5-0.6,1-4.1,0.6-4C125.9,111.1,125.2,111.3,124.4,111.6z"/><path fill="#000000" d="M133.6,123.9c-0.3,1.6-0.8,1.8-1.7,0.5c-0.6-0.9-0.6-0.9-1.6,0.1c-1.3,1.3-0.9,3,0.8,3.4c0.6,0.2,1.5,0.5,1.8,0.8c0.8,0.6,2.6-1,2-1.7c-0.3-0.3-0.3-0.8,0-1.2c0.3-0.4,0.5-1.2,0.5-2C135.3,122,134,122.1,133.6,123.9z"/><path fill="#000000" d="M50.9,125.8c0,0.5,0.2,0.9,0.5,0.9c0.3,0,0.5-0.4,0.5-0.9c0-0.5-0.2-0.9-0.5-0.9C51.1,124.9,50.9,125.3,50.9,125.8z"/><path fill="#000000" d="M38.9,128.8c-0.6,0.7-1,1.4-1,1.6c0,0.2-0.4,0.5-0.8,0.5c-0.5,0-0.1,0.2,0.7,0.4l1.5,0.3l-1.2,1.3c-1.2,1.3-1.3,1.3-4.2,1c-2.8-0.3-3-0.2-3.4,0.7c-0.3,0.9-0.2,1.1,0.7,1.2c1.3,0.2,1.4,0.7,0.2,1.9c-0.5,0.5-0.9,1.1-0.9,1.3c0,0.5,1.6,1,3.6,1c1.8,0,2.4,0.7,1,1.2c-1.7,0.5-2.5,2.5-1.1,2.5c1.1,0,0.8,0.8-0.3,1.2c-0.6,0.2-1.3,0.7-1.7,1.2c-0.4,0.5-1.2,0.9-2.1,0.9c-1.4,0-1.4,0-0.3,0.4c0.7,0.2,1,0.4,0.6,0.6c-0.9,0.6-0.2,1.6,0.8,1.4c0.7-0.2,0.9,0,0.9,1c0,0.7,0.3,1.2,0.7,1.2c1.7,0,5.9-1.4,7.2-2.4c0.9-0.6,2.8-1.4,4.6-1.8c3-0.6,3.2-0.7,4.1-2.4c1.3-2.5,1.2-3.8-0.6-8.2c-0.2-0.5,0.1-0.9,1.2-1.4c1.8-0.8,2-2,1-5.2l-0.8-2.4l-3.6,0.3c-2.1,0.2-3.7,0.1-3.9-0.1C41.4,127.3,39.9,127.6,38.9,128.8z"/><path fill="#000000" d="M120.5,203c0,0.3-0.7,1-1.6,1.4c-1.6,0.7-1.7,0.9-1.4,2.7c0.1,1,0.5,2.1,0.8,2.3c0.3,0.2,0.4,0.4,0.1,0.4c-0.5,0,1.2,1.4,1.7,1.4c0.6,0,1.3-3.3,1.3-6.1c0-1.4-0.2-2.6-0.5-2.6C120.8,202.4,120.5,202.6,120.5,203z"/><path fill="#000000" d="M213.1,212.3c-0.3,0.8,1.1,1.8,2.4,1.7c1.1-0.1,1.1-0.1,0.3,0.3c-0.5,0.2-1.6,0.5-2.4,0.5c-1.5,0-2.2,1-0.7,1c0.4,0,0.6,0.1,0.4,0.3c-0.3,0.4-4.2,0.2-5.5-0.2c-0.6-0.1-0.7,0-0.6,0.3c0.4,0.6-1.7,0.7-2.4,0c-0.3-0.3-0.9-0.3-2,0.2c-1.9,0.8-3,2-3.4,3.7l-0.3,1.3l2.2-0.3c2.2-0.3,2.2-0.3,1.4,0.6c-0.7,0.8-0.7,1,0.1,2c0.8,1,0.8,1.2,0.1,1.7c-0.6,0.5-0.6,0.7-0.2,1.2c0.7,0.8,0.1,1.4-1,1c-0.4-0.1-0.8,0-0.9,0.4c-0.2,0.5,0.3,0.8,1.6,1.2c1.5,0.5,1.8,0.8,1.8,1.9c0,0.8,0.4,1.6,1.1,2c0.7,0.6,0.8,0.9,0.5,1c-1.2,0.5-0.6,1.1,1.1,1.1c1.4,0,1.6,0.1,1.3,0.9c-0.3,1,0.2,1.2,1.1,0.4c0.4-0.4,0.8-0.4,1.7,0c0.6,0.4,1.3,0.5,1.7,0.3c0.3-0.2,0.7,0.2,1.1,1.1c0.5,1.4,0.6,1.4,3.1,1.4c2.7,0,3.2-0.3,3.2-2.4c0-0.8,0.2-0.9,1.8-0.7l1.8,0.2V224v-12.2h-5.1C214.8,211.8,213.2,212,213.1,212.3z"/><path fill="#000000" d="M119.2,213.3c-0.6,0.3-1.6,0.6-2.1,0.6c-1.5,0-1.6,0.4-0.6,2.2c0.7,1.3,0.8,2.2,0.6,4.5c-0.2,2.6-0.2,3,0.7,3.4c0.7,0.4,1,0.3,1.2-0.2c0.1-0.4,0.8-0.7,1.6-0.7c1.6,0,1.7-0.2,2.1-5.2c0.2-2.4,0.1-3.4-0.5-4.3C121.3,212.4,120.8,212.3,119.2,213.3z"/><path fill="#000000" d="M185.6,218.3c0,0.4,0.3,0.7,0.7,0.7c0.6,0,0.6-0.1,0.2-0.7c-0.3-0.4-0.6-0.7-0.7-0.7C185.7,217.6,185.6,217.9,185.6,218.3z"/><path fill="#000000" d="M137.6,229.3c-2.9,1.1-2.3,1.8,3.4,4.6c2.9,1.4,5.4,2.6,5.6,2.6c0.2,0,0.7-0.3,1.2-0.7c0.6-0.6,0.7-0.9,0.3-2.1c-0.4-1.1-0.4-1.6,0.3-3c0.5-0.9,0.8-1.7,0.7-1.8c-0.1-0.1-1.5,0.1-3.1,0.5c-2,0.5-3.3,0.6-4.2,0.3c-0.6-0.3-1.5-0.6-1.9-0.7C139.5,228.8,138.5,229,137.6,229.3z"/><path fill="#000000" d="M187.1,243.2c-0.4,1,0,1.2,2.7,1.6c1.3,0.2,2.5,0.6,2.7,0.8c0.4,0.7,6.9,0,6.9-0.7c0-0.5-0.3-0.5-1.2-0.2c-0.6,0.2-1.2,0.3-1.2,0c0-0.6-3.1-1.2-5-1c-0.8,0-1.8-0.1-2.1-0.3C189,242.7,187.4,242.5,187.1,243.2z"/></g></g></g>
</svg>