<?xml version="1.0" encoding="utf-8"?>
<!-- Svg Vector Icons : http://www.onlinewebfonts.com/icon -->
<!DOCTYPE svg PUBLIC "-//W3C//DTD SVG 1.1//EN" "http://www.w3.org/Graphics/SVG/1.1/DTD/svg11.dtd">
<svg version="1.1" xmlns="http://www.w3.org/2000/svg" xmlns:xlink="http://www.w3.org/1999/xlink" x="0px" y="0px" viewBox="0 0 256 256" enable-background="new 0 0 256 256" xml:space="preserve">
<metadata> Svg Vector Icons : http://www.onlinewebfonts.com/icon </metadata>
<g><g><g><path fill="#000000" d="M143.8,10.3c-0.2,0.3,0,0.7,0.2,0.9c0.3,0.2,0.5,0.5,0.4,0.8c-0.1,0.3,0.4,1,1.1,1.6l1.2,1l-1.9-0.8c-1.7-0.7-1.9-0.7-1.6,0c0.2,0.5,0,0.6-0.4,0.4c-0.4-0.1-0.7,0-0.7,0.5c0,0.8-0.9,1.6-1.3,1.2c-0.1-0.1-0.1-0.7,0.2-1.2c0.3-0.5,0.4-1.3,0.2-1.7c-0.4-1.2-2.6,0.1-2.6,1.5c0,0.7-0.2,1.1-0.6,0.9c-0.3-0.1-0.6-0.7-0.5-1.3l0.1-1.1l-0.9,1.1c-0.8,1.1-0.8,1.2-0.1,1.8c0.7,0.5,0.7,0.6,0,0.6c-0.5,0-0.9,0.2-0.9,0.5c0,0.3,0.5,0.4,1.2,0.2c1-0.2,1.2-0.1,1.1,0.6c-0.1,0.5,0.1,1,0.4,1.2c0.3,0.2-0.2,0.4-1.2,0.4c-1.5,0-1.6,0.1-0.9,0.6c0.6,0.5,0.7,0.7,0.2,1.2c-0.4,0.4-0.8,0.4-1.1,0c-0.9-0.9-1.6,1.6-0.7,2.6c0.5,0.5,0.5,0.9,0.2,1.1c-0.3,0.1-0.5,0.9-0.5,1.6c0,1,0.2,1.2,1,1c1.3-0.3,1.9,1.8,0.8,3c-0.4,0.4-0.9,1.4-1.1,2.1c-0.3,1.2-0.1,1.3,1.5,1.6c1.1,0.2,2.1,0.1,2.5-0.2c0.4-0.3,0.9-0.4,1.1-0.2s-0.2,0.8-0.8,1.3c-1.1,0.9-1.1,0.9-0.1,0.9c0.6,0,0.9,0.2,0.7,0.7c-0.4,1.2,1.2,1.2,2.4,0.1c0.7-0.6,1.6-1.3,2.1-1.5c0.9-0.3,7.4,1.4,7.7,2.1c0.2,0.5,4.1,3,4.6,3c0.3,0,0.8,0.5,1.2,1.2c0.3,0.7,1,1.2,1.4,1.2c0.5,0,0.6-0.1,0.1-0.7s-0.3-0.7,0.8-0.7c0.7,0,1.6,0.3,2,0.7c0.3,0.4,1,0.7,1.4,0.7c0.4,0,0.7,0.2,0.7,0.5c0,0.2-0.4,0.5-0.9,0.5c-0.5,0-1.1,0.2-1.3,0.5c-0.4,0.6,2,0.6,3.2,0c0.8-0.4,1-0.3,1.5,0.7c0.4,0.8,0.8,1.1,1.4,0.9c0.4-0.2,0.6-0.1,0.4,0.1c-0.2,0.2,0.2,1.1,0.8,2c1.1,1.4,1.2,1.8,0.7,2.7c-0.4,0.8-0.4,1,0.1,0.7c0.4-0.3,0.5-0.1,0.3,0.4c-0.2,0.6-0.1,0.8,0.3,0.6c0.4-0.1,0.8,0,1,0.3c0.1,0.3,0.4,0.1,0.5-0.5c0.2-0.6,0.5-1.1,0.7-1.1c0.2,0,0.2,0.7,0,1.6c-0.5,2-0.5,2,0,1.6c0.3-0.1,0.5,0,0.5,0.4c0,0.4,0.2,0.8,0.5,0.8c0.3,0,0.5-0.3,0.5-0.7c0-0.4,0.2-0.9,0.6-1.1c0.3-0.2,0.4,0,0.3,0.6c-0.2,0.6,0.1,1.5,0.9,2.4l1.1,1.4l0-1.4c0-1,0.2-1.3,0.8-1.1c0.4,0.1,0.9,0.3,1,0.3c0.1,0,0,0.5-0.3,1c-0.4,0.7-0.4,0.9,0,0.7c0.3-0.2,0.5,0,0.5,0.4s0.2,0.6,0.5,0.5c0.3-0.1,0.5,0,0.5,0.2c0,0.3,0.3,0.5,0.6,0.3c0.3-0.1,0.9,0.1,1.3,0.6c0.7,0.8,4.8,2.3,5.6,2.1c0.2,0,0.7,0.1,1.1,0.4c0.5,0.4,0.7,0.2,1-0.8c0.2-0.9,0.5-1.2,1.1-1c3,1.2,3.5,0.3,1.6-2.9c-0.6-1-1.1-2-1.1-2.3c0-0.2-0.5-0.5-1.1-0.6c-0.6-0.1-1.1-0.5-1.1-0.9c0-0.4-0.3-1.1-0.7-1.6c-0.3-0.4-0.5-1-0.3-1.2c0.3-0.5-2.5-3-3.3-3c-0.2,0-0.2-0.2-0.1-0.5c0.2-0.3,0.1-0.8-0.2-1.1c-0.3-0.4-0.3-0.9,0-1.3c0.3-0.5,0.1-1.1-0.6-1.8c-1.1-1.2-0.6-1.6,0.5-0.5c1.2,1.3,0.2-2.9-1.1-4.7c-0.7-0.9-1.3-1.9-1.3-2.2c0-0.2-0.4-0.7-0.8-1c-0.8-0.5-0.8-0.5,0-0.5c1.5,0,1.2-4.3-0.5-7.4c-1.2-2.2-1.4-2.2-2.2-1.5c-0.6,0.6-0.8,1.2-0.6,2.2c0.2,0.8,0.1,1.4-0.2,1.4c-0.3,0-0.7-0.7-0.8-1.5c-0.4-2-1.1-1.9-0.8,0.1c0.2,1.5,0.1,1.6-0.5,0.9c-0.5-0.4-0.7-1-0.5-1.8c0.3-1.2-0.2-1.5-1.1-0.6c-0.3,0.3-0.8,0.4-1.1,0.2c-0.8-0.5,1.2-1.7,2.9-1.7c0.7,0,1.6-0.2,2-0.5c0.6-0.4,0.5-0.5-0.3-0.5c-0.6,0-1.2-0.2-1.4-0.5c-0.3-0.5-2.2-0.6-3.4-0.2c-0.4,0.1-0.6,0.5-0.5,0.7c0.1,0.2,0,0.4-0.2,0.4c-0.3,0-0.5-0.2-0.5-0.5c0-0.3-0.2-0.5-0.5-0.5c-0.2,0-0.3,0.3-0.2,0.7c0.4,0.9-0.6,0.9-1.6,0c-0.4-0.4-0.5-0.8-0.2-1c0.2-0.1,0.5-0.6,0.4-0.9c0-0.4-0.1-0.4-0.3,0c-0.3,0.8-1.1,0.3-1.1-0.7c0-0.4,0.2-0.6,0.5-0.4c0.3,0.1,0.6,0,0.8-0.5c0.3-0.9-0.7-1.9-1.5-1.4c-0.2,0.1-0.1,0.4,0.2,0.7c0.4,0.3,0.5,0.4,0.1,0.4c-0.9,0-2.1-0.6-2.1-1.1c0-0.2,0.2-0.3,0.4-0.2c0.2,0.1,0.4,0,0.4-0.4c0-0.4-0.4-0.6-1.4-0.5c-0.9,0.1-1.4,0-1.4-0.5c0-0.6-0.5-0.6-2.4-0.4c-2.4,0.3-2.4,0.3-2.4-0.9c0-1.1-0.2-1.3-2-1.2c-1.1,0-1.8,0.2-1.7,0.4c0.4,0.7-0.3,0.5-1.7-0.5c-2-1.4-4.6-2.6-4.3-2.1c0.2,0.3,0,0.5-0.4,0.5s-0.9-0.5-1.1-1.1c-0.3-1-0.3-1-0.7-0.1c-0.3,0.9-0.3,0.8-0.6-0.3C146.5,10.7,144.3,9.4,143.8,10.3z"/><path fill="#000000" d="M130.7,21.7c-0.2,0.2-1.2,0.4-2.4,0.5c-2.5,0.2-4.1,1.5-3.2,2.5c0.5,0.6,0.4,0.7-0.6,0.5c-0.9-0.1-1.2,0-1.1,0.6c0.1,0.4,0,0.6-0.2,0.4c-0.2-0.2-0.7-0.1-1,0.2c-0.6,0.5-0.5,0.7,0.4,1.5c0.6,0.5,0.8,0.7,0.4,0.5c-0.6-0.3-0.6-0.2-0.1,0.4c0.5,0.6,0.9,0.7,1.9,0.3c0.6-0.2,1.4-0.3,1.7-0.1c0.2,0.1,0.6,0,0.7-0.4c0.1-0.3,0.6-0.7,1-0.7c0.6,0,0.4,0.3-0.5,1.1c-1,0.7-1.2,1.2-0.8,1.6c0.3,0.3,0.1,0.4-0.9,0.2l-1.4-0.2l1.2,1.3c0.7,0.7,1.5,1.3,1.8,1.3c0.4,0,0.5,0.3,0.4,0.6c-0.1,0.4-0.7,0.6-1.3,0.6c-0.6,0-1.1,0.3-1.2,0.8c-0.1,0.6,0,0.8,0.6,0.6c0.5-0.2,1.1,0,1.5,0.6c0.5,0.7,0.7,0.7,0.7,0.2c0-0.4,0.1-0.6,0.2-0.4c0.1,0.1,0.1,0.6,0,1.1c-0.2,0.6-0.6,0.8-1.6,0.5c-1-0.2-1.2-0.2-0.7,0.3c0.5,0.5,0.4,0.8-0.2,1.5c-1.1,1.2-0.7,1.4,2.1,0.6c1.8-0.5,2.6-0.5,3.1-0.1c0.5,0.3,0.8,0.3,1.4-0.2c1-1,0.4-1.9-1.3-1.9c-0.8,0-1.5-0.3-1.7-0.7c-0.2-0.6,0-0.7,0.9-0.4c1,0.2,1.2,0.1,1.2-0.7c0-0.6,0.2-1,0.4-1s0.3-0.4,0.2-1s-0.5-1-0.9-1c-1.1,0-1.2-1.4-0.2-2c0.5-0.3,0.8-0.7,0.7-1c-0.2-0.2,0-0.4,0.5-0.4c0.6,0,0.7-0.1,0.2-0.7c-0.4-0.5-0.4-1-0.1-1.7c0.8-1.4,0.7-2.7-0.1-2.1c-0.5,0.4-0.7,0.3-0.7-0.2c0-0.4,0.2-0.7,0.4-0.7c0.7,0,0.4-2.3-0.4-2.6C131.1,21.4,131.1,21.4,130.7,21.7z"/><path fill="#000000" d="M170.4,21.9c0,0.6,1.4,1.2,1.9,0.8c0.1-0.2,0-0.5-0.4-0.8C170.9,21.3,170.4,21.4,170.4,21.9z"/><path fill="#000000" d="M119.9,29c-0.1,0.3,0,0.9,0.3,1.2c0.4,0.4,0.4,0.5-0.1,0.5c-0.3,0-0.5,0.2-0.3,0.4c0.2,0.2,0,0.6-0.3,0.7c-0.4,0.1-0.2,0.3,0.3,0.3c0.6,0,0.8,0.3,0.6,0.8c-0.2,0.5,0.1,0.7,1.1,0.8c1.1,0,1.2,0.1,0.3,0.4c-0.9,0.3-0.9,0.4,0,0.9c0.5,0.2,0.8,0.7,0.7,0.9c0,0.2,0.2,0.5,0.7,0.6c0.5,0.1,0.9-0.3,1.1-1.1c0.1-0.7,0.5-1.2,0.7-1c0.2,0.1,0.5-0.1,0.7-0.5c0.5-1.3,0.3-1.8-0.4-1.5c-0.4,0.1-0.8,0.1-0.9-0.1c-0.1-0.2-1.1-1.2-2.2-2.2C120.7,28.8,120.1,28.4,119.9,29z"/><path fill="#000000" d="M114.2,34.4c0,0.4,0.2,0.7,0.6,0.7c0.3,0,0.4,0.1,0.2,0.3c-0.2,0.1,0.2,0.6,0.9,1c1.6,0.8,1.6,0.8,1.3-0.3c-0.1-0.6-0.9-1.3-1.7-1.8C114.4,33.7,114.2,33.7,114.2,34.4z"/><path fill="#000000" d="M118.6,36.1c0,1.1,1.3,1.7,1.7,0.8c0.1-0.4-0.1-0.9-0.7-1.2C118.8,35.2,118.6,35.3,118.6,36.1z"/><path fill="#000000" d="M53.9,36.4c-0.1,0.4-0.3,1.2-0.3,1.7c0,0.4-0.3,1.1-0.7,1.5c-0.5,0.4-0.6,0.8-0.2,1.6c0.4,0.8,0.3,1.2-0.5,2l-1,1l-1.1-1c-0.8-0.8-0.9-1.2-0.5-1.8c0.5-0.5,0.2-0.8-1.3-1.2c-2.4-0.7-2.5-0.7-2.5,0.2c0,0.4-0.5,1.2-1.1,1.6l-1.1,0.9l1,1.7c0.5,0.9,1.5,1.7,2.1,1.8c1.2,0.2,1.5,1.1,0.3,1.1c-0.4,0-0.9,0.4-1.2,1c-0.5,1-2,1.4-2,0.5c0-0.3-0.5-0.5-1.2-0.5c-0.6,0-1.3-0.2-1.4-0.5c-0.1-0.4-1-0.3-3,0.2c-2.2,0.6-2.8,1-2.8,1.8c0,0.5-0.3,1.1-0.8,1.3c-0.4,0.1-0.6,0.5-0.5,0.9c0.1,0.3-0.1,0.9-0.5,1.2c-0.6,0.5-0.6,0.7,0.3,1.3c1.1,0.7,0.8,1.7-0.8,3.3c-0.8,0.8-0.8,0.9,0,1.3c0.6,0.3,0.8,0.8,0.5,1.7c-0.2,0.9-0.1,1.2,0.3,1c0.3-0.1,1.1,0.1,1.6,0.6c0.9,0.9,0.9,0.9-0.1,0.9c-0.6,0-1.4,0.5-1.9,1.3c-0.8,1.2-1,1.3-3.6,1c-2.8-0.3-3.4,0-3.7,1.6c-0.1,0.5,0.3,0.5,2.2,0.2c1.3-0.2,4.1-0.4,6.2-0.4c5.2-0.1,5-0.1,4.9-1.3c0-1,0.3-1.2,4.1-1.9c4.1-0.7,6.2-0.7,4.9,0c-0.3,0.2-0.4,0.6-0.2,1c0.2,0.3-0.2,0.2-0.9-0.2c-1.2-0.7-1.3-0.7-2.5,0c-0.7,0.4-1.2,1.1-1.1,1.4c0.1,0.3-0.1,0.8-0.6,1.2c-0.7,0.5-0.4,0.6,1.3,0.5c1.1,0,2.2,0,2.4,0.2c0.5,0.6,1.7-0.2,1.7-1.1c0-1.1,1.2-1.2,2.2-0.3c0.3,0.3,0.6,1.1,0.5,1.7c-0.1,0.6,0.1,1.2,0.3,1.4c0.2,0.1,0.4,0.6,0.4,1.1s0.7,1.2,1.8,1.7c1,0.5,1.9,1.3,2,1.8c0.1,0.5,0.7,1,1.2,1.1c0.5,0.1,0.9,0.3,0.8,0.6c-0.1,0.2-0.3,0.4-0.5,0.4c-0.6-0.2-0.4,0.9,0.4,3.4c0.8,2.4,1.7,3,1.7,1.3c0-0.5,0.2-0.8,0.5-0.7c0.3,0.2,0.4,0.7,0.2,1.2c-0.4,1.4,0.7,1.7,1.2,0.4c0.5-1.1,0.5-1,0.2,0.2c-0.2,1,0,1.4,0.5,1.4s0.6,0.2,0.4,0.6c-0.2,0.3-0.3,1.1-0.2,1.7c0.1,0.5-0.1,1.2-0.3,1.4c-0.3,0.2-0.3,0.9,0.2,2.1c0.4,1,0.6,2.1,0.5,2.3c-0.1,0.3,0,0.7,0.3,0.8c0.4,0.1,0.4,0.5,0,1.7c-0.5,1.2-0.4,1.5,0.1,1.2c0.4-0.1,0.7,0,0.7,0.5c0,0.4-0.3,0.8-0.6,0.8c-0.5,0-0.7,0.7-0.7,2.2c0,2.3,0.2,2.6,1.2,1.7c0.3-0.3,0.5,0.3,0.4,2.3c0,2.3,0,2.7,0.7,2.4c0.5-0.2,0.3,0.1-0.3,0.9c-1.2,1.3-1.3,2.6-0.2,3.7c0.3,0.3,0.6,1,0.6,1.3c0,0.4,0.6,1.1,1.5,1.5c1,0.6,1.3,1,0.9,1.5c-0.5,0.7,0.2,1.4,1,0.9c0.7-0.4,1.6,1.5,1.2,2.4c-0.2,0.4,0,1.1,0.2,1.5c0.8,1,0,3.8-1.1,4c-0.7,0.1-0.8,0-0.3-0.4c0.3-0.3,0.5-0.7,0.5-0.9c0-0.3-2.6-1.9-3.2-1.9c-0.2,0-0.3,1.2-0.2,2.5c0,1.4,0,3-0.3,3.6c-0.2,0.5-1.3,3.3-2.5,6c-1.4,3.4-2.2,5.8-2.2,7.2c0,1.3-0.4,2.8-1,3.9c-0.8,1.4-1,2.2-0.7,4.3c0.5,4.7,0.8,5.3,2,5.8c1.1,0.4,1.7,2,0.7,2c-0.8,0-0.6,1.6,0.7,4.9c0.7,1.7,1.2,3.7,1.2,4.4c0,1.1,0.4,1.6,2.4,2.7c3.2,1.7,4.5,3.9,5.8,9.5c0.6,2.5,1.2,5,1.3,5.5c0.1,0.4,1.2,2.1,2.4,3.6c1.7,2.2,2.1,3,1.7,3.6c-0.2,0.5-0.3,1-0.1,1.2c0.2,0.2-0.3,0.2-1.1,0l-1.5-0.3l1.7,1.8c0.9,0.9,2.1,1.7,2.5,1.6c0.4-0.1,1.4,0.6,2.2,1.5c1.1,1.4,1.3,1.9,1,3.5c-0.3,1.8-0.2,2,2.4,4.2c1.5,1.3,2.7,2.6,2.7,3c0,0.9,1,1.4,1.6,0.8c0.8-0.8,0-2.5-1.6-3.3c-1.1-0.6-1.4-1.2-2-3.9c-0.4-2.1-1.2-4.1-2.2-5.5c-0.8-1.3-1.7-2.9-1.9-3.7c-0.1-0.7-1.1-2.5-2.2-3.9c-1.5-2.1-1.9-3.1-2.1-5.6c-0.1-1.7-0.1-3.1,0.1-3.1c0.2,0,1.3,0.6,2.3,1.3c2.1,1.4,3,3.6,3.1,7.1c0,1,0.2,1.7,0.3,1.6c0.2-0.1,0.9,0.7,1.6,1.7c0.7,1.1,1.8,2.1,2.3,2.2c0.7,0.2,0.9,0.6,0.8,1.1c-0.2,0.5,0.4,1.4,1.7,2.5c1.4,1.3,1.9,2,1.7,2.8c-0.2,0.8,0.1,1.3,1.5,2.1c1,0.6,1.8,1.5,1.8,2c0,0.4,1.2,2,2.7,3.5c3.3,3.2,5.3,6.9,4.6,8.3c-0.3,0.5-0.3,1-0.1,1.2c0.1,0.2,0,0.6-0.4,0.8c-1.2,0.8,5.3,6.5,8.2,7.2c1.3,0.3,3.1,1.1,4,1.8c0.9,0.6,4.8,2.1,8.5,3.2l6.8,2.1l3.5-0.8l3.5-0.8l4.7,2.7c4.1,2.3,5.3,2.7,8.7,3.1c2.4,0.3,4.5,0.3,5.5,0c2.2-0.6,3.3-0.5,3.3,0.3c0,0.4-0.3,0.7-0.6,0.7c-0.3,0,0.8,0.8,2.5,1.9c1.8,1,3.2,2.1,3.2,2.4c0,0.3,0.1,1,0.1,1.6c0,0.8,0.2,1,1.5,0.7c1.8-0.4,5.4,1.3,5.4,2.5c0,0.4,0.1,0.6,0.3,0.5c0.2-0.1,0.7-0.1,1.2,0.1c0.6,0.3,1,0.3,1.2,0c0.4-0.6,3-0.6,3.4,0c0.1,0.2,0.6,0.3,1,0.2c0.4-0.2,0.8,0,1,0.4c0.1,0.4,0.6,0.6,1.2,0.5c1.3-0.3,1.6-1,0.9-2c-0.6-0.6-0.4-1,1.2-2.3c1.7-1.4,2-1.5,3.4-1.1c1.2,0.4,1.6,0.8,1.5,1.4c-0.1,0.4,0.1,0.9,0.5,1.1c0.4,0.2,0.8,0.1,0.8-0.1c0-0.3,0.3-0.5,0.7-0.5c1.1,0,1.3-1.4,0.3-2.4c-0.9-0.9-3-1.3-5.6-1c-0.5,0-1.9,0.7-3.1,1.6c-1.2,0.9-2.9,1.5-4.2,1.7c-2,0.2-2.3,0-4.7-2.4l-2.5-2.6l0.7-4.3c0.9-5.2,0.6-6.4-2-7.1c-2.6-0.7-3.8-0.7-7.9,0.4c-3.2,0.9-6.9,1.3-6.9,0.7c0-0.1,0.4-0.9,1-1.8c1-1.7,1.4-5.3,0.5-5.3c-0.2,0-0.3-0.3-0.2-0.7c0.2-0.5,0.5-0.6,0.9-0.2c0.5,0.4,0.7,0.2,0.9-0.8c0.2-0.7,0.2-1.7,0-2.2c-0.1-0.5,0.1-1.9,0.7-3.2c0.6-1.3,1-2.4,1-2.5c0-0.6-5.4,0.4-7.6,1.4c-2.2,1.1-2.4,1.3-3,3.7c-0.7,3.3-2.5,5.6-4,5.2c-0.6-0.1-2.6,0.3-4.4,1c-3.2,1.2-3.3,1.2-4.4,0.2c-0.6-0.5-1.7-0.9-2.3-0.9c-0.9,0-1.8-1-4.3-5l-3.2-5.1v-4.7c0-2.7,0.2-4.7,0.5-4.7c1,0,1.6-2,1.1-4.1c-0.7-2.7-0.2-4.6,1.2-5.3c0.6-0.3,1-0.7,0.9-0.9c-0.1-0.2,0.2-0.4,0.9-0.4c1.2,0,3.3-1.6,3.3-2.6c0-0.4,1.2-0.6,3.8-0.7c2.1-0.1,4.1-0.4,4.4-0.7c0.5-0.4,1-0.3,2.2,0.5c1.2,0.9,1.6,1,2.2,0.5c0.4-0.3,0.7-0.4,0.7-0.2c0,0.2,0.2,0,0.4-0.5c0.3-0.9,0.4-0.9,1.4,0.1c0.6,0.7,1.1,0.9,1.4,0.6c0.1-0.3,0-0.7-0.5-0.8c-0.4-0.2-0.7-0.6-0.5-1c0.1-0.3-0.3-0.8-1.1-1.1c-1.2-0.4-1-0.5,1.8-1c1.7-0.3,3-0.7,3-0.9c0-0.2,1.5-0.4,3.3-0.5c2.4-0.1,3.4,0.1,4.1,0.7c0.8,0.7,1,0.7,2.3-0.2c1.5-1.1,2.1-0.9,4.7,1.2c0.9,0.8,1.3,1.5,1.3,2.6c0,1,0.2,1.4,0.5,1.2c0.3-0.1,0.5,0,0.4,0.6c-0.2,1.7,0,2.2,0.9,2.2c0.6,0,1.1,0.5,1.5,1.5c0.3,0.8,1,1.6,1.5,1.8s1,0.6,1,1c0,1.1,1.2,0.4,1.5-0.9c0.8-2.9,0.4-4.6-2.7-10.7l-3.1-6.1l1-2c1.9-3.7,4.5-7.4,7.2-10.2c1.5-1.5,2.4-2.8,2.1-2.8c-0.9,0-0.5-1.2,0.5-1.6c1.2-0.5,1.1-2.1-0.1-1.7c-1.2,0.3-1.3-0.4-0.2-1c1-0.5,0.5-1.9-0.8-2.3c-0.5-0.2-0.9-0.6-0.8-0.9c0.3-1-0.6-2.3-1.6-2.3c-0.5,0-1.1-0.2-1.3-0.5c-0.2-0.4,0-0.5,1-0.2c1.4,0.3,1.5,0.1,0.5-1.7c-0.4-0.9-0.5-1.4-0.1-1.8c0.8-1,1.3-0.7,1,0.6c-0.1,0.9,0.1,1.6,1,2.4c1.2,1.1,1.3,1.1,1.6,0.2c0.1-0.5,0-1.6-0.4-2.4c-1-1.9-1-2.3,0-1.5c0.6,0.5,0.8,0.3,1.2-0.8c0.4-1,0.4-1.7,0-2.5c-0.8-1.7,0.2-3.3,2.7-4.6c1.2-0.6,2.2-1.4,2.2-1.8s0.2-0.5,0.4-0.4c0.2,0.1,0.9-0.2,1.6-0.8c0.7-0.5,0.9-0.8,0.6-0.6c-0.3,0.1-1.1,0-1.6-0.2c-0.8-0.4-1-1-1-2.8c0-2.9,0.4-4.5,1.2-4.5c0.3,0,0.7-0.5,0.9-1.1c0.2-0.6,0.8-1.3,1.4-1.6c0.8-0.3,1.1-0.9,1-1.9c0-0.9,0.1-1.3,0.7-1.3c0.4,0,1.4-0.9,2.2-2.1c0.8-1.3,1.4-1.7,1.4-1.2c0,1,0.2,1.1,1.5,0.4c0.8-0.4,0.9-0.4,0.7,0.2c-0.2,0.4-0.7,0.7-1.1,0.7c-1.3,0-2.6,3.1-2,4.6c0.9,2.3,2.4,1.3,2.4-1.5c0-0.7,0.3-1.3,0.7-1.5c0.4-0.2,0.7-0.5,0.7-0.9c0-0.3,0.9-1.5,2-2.5c1.9-1.8,1.9-2,0.9-2.3c-0.7-0.3-1.4-0.1-2.4,0.6c-1,0.7-1.8,0.9-2.9,0.7c-1.7-0.3-3.9-2.2-3.9-3.4c0-0.5-0.4-0.6-1.5-0.5l-1.5,0.2l1.3-1.2c1.4-1.3,1.6-2.3,0.6-3.1c-0.9-0.7-3,0-4.3,1.6c-0.5,0.6-1.8,2.8-2.8,4.8l-1.8,3.8l0.1-2.1c0.1-1.5,0.6-3,1.6-4.6c0.8-1.4,1.5-2.8,1.5-3.3c0-2.3,0.6-2.9,5.9-5.5c5.3-2.6,5.9-3.1,5.9-5.7c0-0.5,0.5-1.5,1.2-2.1c1.3-1.3,2-3.9,1-4.3c-0.3-0.1-1-1-1.4-1.9c-0.8-1.8-2.2-2.2-2.2-0.8c0,0.8,0,0.8-0.7,0c-0.9-1.1-1.5-1.1-2.5,0.2c-0.7,1-0.8,1-0.5,0.1c0.1-0.5,0.4-1.3,0.5-1.8c0.3-0.7,0-0.8-1.7-0.6c-1.1,0.1-2.3,0.4-2.7,0.7c-0.4,0.4-0.7,0.2-0.9-0.5c-0.2-0.8-0.5-1-1.3-0.8c-0.6,0.1-1,0-1-0.2c0-0.2-0.3-0.4-0.7-0.4c-0.4,0-0.7-0.4-0.7-1.2c0-1-0.2-1.2-1.2-1.2c-0.8,0-1.2-0.3-1.2-0.7c0-0.7-0.6-0.9-1.6-0.8c-0.2,0-0.4-0.2-0.4-0.5c0-0.2-0.2-0.3-0.6-0.1c-0.3,0.2-0.4,0.1-0.2-0.4c0.2-0.5-0.3-1.1-1.8-1.8c-1.1-0.6-2.3-1.4-2.6-1.9c-0.5-0.7-0.6-0.6-0.6,0.5c0,0.7,0.3,1.4,0.7,1.5c0.8,0.3,0.6,2.9-0.2,3.2c-0.2,0.1-0.4,0.7-0.4,1.4c0,0.9-0.2,1.2-0.7,0.9c-0.4-0.1-0.7,0-0.7,0.3c0,0.3-0.3,0.1-0.6-0.5c-0.4-0.8-0.8-1-1.3-0.6c-0.4,0.2-1.1,0.4-1.5,0.4c-0.5,0-0.5-0.1-0.1-0.3c0.3-0.1,0.6-0.5,0.6-0.9c0-0.4-0.2-0.6-0.4-0.4c-0.2,0.1-0.6-0.2-0.8-0.7c-0.1-0.5-0.5-1-0.8-1c-0.3,0-0.4-0.2-0.2-0.4c0.7-1.1-0.3-2-2.2-2c-1,0-1.9-0.2-1.9-0.5c0-0.3-0.3-0.5-0.7-0.5c-0.4,0-1.3-0.3-2-0.8c-0.9-0.6-1.4-0.7-1.8-0.2c-0.3,0.3-1.6,0.5-2.9,0.5c-2.5,0-2.9,0.5-1.6,2.2c0.4,0.5,0.7,1.4,0.7,2.1c0,0.6,0.2,1,0.4,0.9c0.8-0.5,1.6,2.2,1.2,4.5c-0.3,2.2-0.2,2.3,1.2,3c0.8,0.3,2,1.4,2.6,2.4c0.5,1,1.5,2.2,2.1,2.6c0.8,0.7,0.9,0.9,0.2,0.9c-0.5,0-0.9,0.6-1.1,1.6c-0.1,0.9-1,2.3-1.8,3.1c-1.5,1.5-1.5,1.6-0.5,2.2c1.5,1.1,3.5,5.4,3.4,7.4c-0.1,1-0.2,1.7-0.5,1.5c-0.2-0.1-0.5,0.1-0.6,0.5c-0.4,1-2.2,1-2.2,0c0-0.4-1-1.4-2.2-2.2c-1.8-1.2-2.3-1.9-2.9-4.1c-0.4-1.5-0.8-2.9-0.8-3.1c0-0.9-0.8-1.1-3.2-0.6c-2.2,0.4-2.6,0.3-7.9-2.2c-5.4-2.6-5.6-2.6-7-1.9c-1.7,0.9-2.2,0.9-1.8,0.2c0.2-0.3,0-1.5-0.5-2.7c-0.7-1.9-1-2.2-2-2c-0.8,0.1-1.3-0.1-1.6-0.7c-0.8-1.5-0.5-4.7,0.5-6.8c0.6-1.1,0.9-2.1,0.8-2.3c-0.1-0.2,0.1-0.8,0.7-1.3c0.5-0.5,1-1.2,1-1.5c0-0.3,0.5-0.7,1.1-0.9c1.1-0.3,1.1-0.3,0.1-1.3c-0.7-0.8-0.7-0.9-0.1-0.7c0.5,0.2,0.8,0,1.1-0.9c0.2-0.9,0.6-1.3,1.5-1.3s1.4-0.4,1.7-1.3c0.7-1.9,0.7-2-2-2.6c-1.3-0.3-2.4-0.8-2.4-1c0-0.6,0.6-0.5,2.6,0.3c1.7,0.7,1.8,0.7,2.3-0.3c0.3-0.5,0.4-1.3,0.3-1.7c-0.2-0.5,0.1-0.7,1.3-0.7c1.5,0,1.5,0,0.6-0.7c-1.2-0.9-0.5-1.7,0.8-0.9c0.8,0.5,1.1,0.4,1.8-0.9c0.7-1.5,0.7-1.6-0.5-2.9c-0.7-0.8-1.1-1.5-0.8-1.7c0.8-0.5,0-2.2-0.9-2.2c-0.5,0-0.9-0.2-0.9-0.5c0-0.6-1-0.6-1.9,0c-0.5,0.3-0.6,0.6-0.2,1.1c0.3,0.4,0.4,1.7,0.2,3.6c-0.4,3.5-1.3,3.9-2.5,1c-1.4-3.4-2.5-4.3-2.5-2c0,0.7-0.2,1.2-0.4,1.2c-0.5,0-2.1-2.7-1.7-3.1c0.1-0.1-0.2-0.3-0.8-0.3c-0.9,0-1.1-0.2-0.8-1.4c0.2-1-0.1-1.8-1.3-3.2l-1.6-1.9l-0.9,1.8c-0.4,1-0.6,1.8-0.4,1.8c0.2,0,0.3,0.5,0.2,1.1c-0.2,0.9,0,1.3,1.3,1.8c0.8,0.3,1.4,0.8,1.2,1.1c-0.1,0.2,0,0.8,0.4,1.2c0.5,0.6,0.4,0.9-0.5,1.5c-0.7,0.4-1.1,1.2-1.1,2.1c0,1.1-0.2,1.3-0.8,1.1c-0.5-0.2-0.7-0.6-0.5-1.4c0.2-0.8,0-1.3-0.5-1.6c-0.8-0.5-0.8-0.5,0-0.5c1.5,0,1.6-1.1,0.1-2.3c-1.8-1.4-2-1.4-2.3,0c-0.2,0.7,0,1.3,0.6,1.8c0.7,0.5,0.7,0.7,0.1,1c-0.3,0.2-0.5,0.7-0.3,1c0.2,0.3,0.6,0.4,0.8,0.3c0.2-0.2,0.4,0,0.4,0.5c0,0.7-0.1,0.7-0.7,0.2c-0.6-0.5-0.9-0.5-1.3-0.1c-1,1-4,0.7-4.9-0.4c-0.4-0.5-1.3-1-1.8-1c-0.5,0-1.1-0.4-1.3-1c-0.3-1.1-1-1.2-2.7-0.2c-1.1,0.6-0.7,1,0.7,0.8c0.3,0,0.1,0.2-0.3,0.7c-0.6,0.7-0.7,1-0.2,2.1c0.4,1,0.4,1.3,0,1.5c-0.3,0.1-0.5,0.4-0.3,0.7c0.1,0.3,0,0.1-0.5-0.3c-0.4-0.5-0.6-1.1-0.5-1.3c0.1-0.2-0.1-1-0.6-1.7c-0.6-0.9-1.1-1.2-1.9-0.9c-1.3,0.4-2.7,0.3-4.5-0.3l-1.4-0.5l1.1-0.8c1.3-0.9,1-1.8-0.8-2.3c-0.6-0.2-2.2-1.2-3.3-2.2c-1.6-1.3-2.4-1.7-3.5-1.6c-1.1,0.1-1.5,0-1.5-0.6c0-0.7-0.1-0.7-0.7-0.2c-0.6,0.5-0.8,0.4-1-0.8c-0.3-1.4-0.3-1.5-2.1-1.1c-2.5,0.6-2.7,0.5-2.1-0.3c0.5-0.6,0.2-0.6-2-0.4c-2.2,0.2-2.5,0.2-2.2-0.5c0.4-1.1-0.4-1-1.6,0.1c-1,1-1,0.9-3-2.7c-1.2-2.2-3-4.6-4.7-6.1c-1.5-1.4-2.8-2.9-2.8-3.4c0-0.4-0.2-1.1-0.4-1.4c-0.2-0.3-0.2-0.8,0-1.1c0.1-0.3,0-0.5-0.2-0.5c-0.3,0-0.4-0.2-0.2-0.5c0.1-0.3-0.1-0.5-0.7-0.5c-0.5,0-1.1-0.2-1.3-0.5c-0.2-0.3-0.7-0.4-1.3-0.2c-0.5,0.2-0.9,0.1-0.9-0.2c0-0.4-0.9-0.5-3.1-0.2c-2.1,0.2-3.2,0.1-3.5-0.2C55.8,35.4,54.3,35.5,53.9,36.4z M128.9,78.2c0,0.2-0.6,0.2-1.5,0c-0.8-0.3-1.5-0.7-1.5-0.9c0-0.2,0.7-0.2,1.5,0C128.3,77.5,128.9,78,128.9,78.2z"/><path fill="#000000" d="M108.4,37.4c0,0.7,1.3,0.9,1.7,0.2c0.1-0.2-0.1-0.5-0.7-0.7C108.7,36.8,108.4,37,108.4,37.4z"/><path fill="#000000" d="M102.4,38.7c-1,0.8-1.2,1.3-0.9,1.8c0.3,0.6,0.6,0.5,1.7-0.5c0.8-0.7,1.3-0.9,1.3-0.5c0,0.4,0.3,0.4,1-0.2C107.5,37.4,104.6,36.9,102.4,38.7z"/><path fill="#000000" d="M38,41c0,0.8,0.2,1.5,0.5,1.5c0.3,0,0.5-0.7,0.5-1.5c0-0.8-0.2-1.5-0.5-1.5C38.2,39.5,38,40.2,38,41z"/><path fill="#000000" d="M120.1,41c0.6,1.1,1.7,1.1,1.7,0c0-0.4-0.5-0.7-1.1-0.8C119.7,40,119.6,40.1,120.1,41z"/><path fill="#000000" d="M105.6,41c0.1,0.2,0,0.6-0.5,0.7c-0.4,0.1-0.6,0.5-0.4,0.8c0.1,0.2,0,0.5-0.4,0.5c-0.8,0-1,0.6-0.4,1.1c0.1,0.2,0.6,0.1,1-0.2c0.5-0.4,0.8-0.4,1.1,0c0.2,0.4,0.6,0.5,1,0.3c0.4-0.2,0.5-0.2,0.3,0.1c-0.2,0.3-0.7,0.6-1.2,0.6c-0.6,0-0.6,0.1-0.2,0.6c0.4,0.4,1,0.4,2.4,0c1.1-0.3,2.4-0.6,2.9-0.6c0.6,0,1.1-0.4,1.3-1c0.3-1.1-0.2-2.1-0.6-1c-0.3,1-1.1,0.1-1.1-1.2c0-0.8-0.2-1.2-0.6-1c-0.4,0.1-0.6,0.8-0.5,1.7c0.1,0.9,0,1.6-0.4,1.6c-0.6,0-2.9-2.4-2.9-3c0-0.2-0.2-0.4-0.5-0.4C105.6,40.5,105.5,40.7,105.6,41z"/><path fill="#000000" d="M123,41.7c0,1.4,1.1,3.7,1.9,3.9c1.5,0.4,6.2,0,6.3-0.5c0.1-0.3,0.6-0.4,1.1-0.3c0.4,0.1,1.1-0.1,1.5-0.5c0.4-0.5,0.5-0.8,0.1-0.8c-0.3,0-0.5-0.3-0.5-0.7c0-0.9-1.6-0.9-3.4,0c-0.8,0.4-2,0.7-2.8,0.6c-1.5-0.1-3.2-1.3-2.8-2c0.1-0.2-0.1-0.4-0.5-0.4C123.4,41,123,41.3,123,41.7z"/><path fill="#000000" d="M116.3,42.3c-0.1,0.4,0,0.9,0.3,1.1c0.3,0.2,0.5,0.7,0.4,1c-0.2,0.9,1.6,1.3,2.1,0.5c0.2-0.3,0.1-1.2-0.1-2C118.4,41.4,116.8,41,116.3,42.3z"/><path fill="#000000" d="M120.8,44.4c-0.4,0.6,0.1,1.5,1,1.5c0.4,0,0.5-0.3,0.4-1C121.9,43.8,121.3,43.6,120.8,44.4z"/><path fill="#000000" d="M96.1,45.4c0,0.5-0.9,1.8-2.1,2.8c-1.2,1-1.8,1.9-1.5,2.1c0.3,0.1,0.6,0.8,0.6,1.7c0,1.4,0.1,1.4,1.6,1.1c0.8-0.2,1.8-0.7,2-1c0.2-0.4,1.7-1.4,3.3-2.2c1.6-0.8,2.9-1.7,2.9-1.9c0-0.7-1.1-1.6-2.1-1.6c-0.4,0-1.1-0.4-1.4-1C98.8,44.1,96.1,44,96.1,45.4z"/><path fill="#000000" d="M162.7,45.8c-0.9,0.6,0.3,1.6,1.6,1.4c1-0.1,1.7-1.3,0.8-1.3c-0.3,0-0.8-0.1-1.2-0.2C163.6,45.5,163.1,45.6,162.7,45.8z"/><path fill="#000000" d="M134.8,47.3c0,0.8,1.9,2.2,2.4,1.8c0.3-0.2,0.8,0,1,0.3c0.6,1.1,0.5,1.5-0.4,1.3c-0.5,0-1.2,0-1.5,0.2c-0.4,0.3-0.6,0.1-0.6-0.5c0-0.5-0.4-1.4-1-2c-0.8-1-1.1-1-2-0.5c-0.5,0.3-0.9,0.9-0.8,1.2c0.1,0.3,0,0.7-0.2,0.9c-0.3,0.2-0.2,0.6,0.3,1.2c0.8,0.9,0.8,0.9-0.1,1c-0.8,0-0.8,0,0.2,0.8c0.6,0.4,1.1,1.1,1.1,1.4c0,0.4-0.5,0.7-1.1,0.6c-0.6,0-0.9-0.1-0.5-0.2c0.4-0.2,0.2-0.8-0.4-2c-0.7-1.2-0.9-2.2-0.7-3.4c0.2-1.4,0.1-1.7-0.6-1.7c-1.4,0-2.5,2.1-2.5,4.6c0,2.1,0,2.2,1.9,2.6c1.2,0.3,1.4,0.5,0.7,0.5c-0.6,0-1.2,0.2-1.3,0.5c-0.5,0.7,1.1,1.7,2.3,1.3c0.7-0.2,1.3,0,1.4,0.4c0.2,0.5,0.8,0.5,2.6,0.2c5.1-0.9,5.1-0.9,4.5-1.7c-1-1.2,0-1.4,1.2-0.3c0.6,0.6,1.6,1.1,2.2,1.1c0.6,0,1.2,0.3,1.4,0.7s1,0.8,1.8,1c2,0.4,4.7,2.8,4.7,4.2c0,0.5-0.2,1.5-0.5,2c-0.5,0.9-0.4,1.2,0.5,1.9l1.1,0.8l-1.3,0.8c-0.7,0.4-1.8,0.8-2.5,0.8c-1.1,0-1.2,0.1-0.9,1.3c0.2,0.8,0.3,1.4,0.4,1.5c0,0,1-0.2,2.2-0.5c1.4-0.3,2-0.8,1.8-1.2c-0.1-0.5,0-0.5,0.7-0.2c0.5,0.3,1,0.4,1.1,0.2c0.1-0.1,0.5,0.1,0.9,0.5c0.3,0.4,1.1,0.7,1.8,0.7c0.8,0,1.1,0.2,0.9,0.7c-0.2,0.6,0.4,0.7,4,0.7l4.3,0l-2.7-1.4c-2.3-1.2-2.5-1.4-1.6-1.7c0.6-0.2,1.5-0.2,2.1-0.1c3.5,1,3.3,1,2.3,0c-1-1.1-1.2-1.8-0.2-1.3c0.3,0.2-0.1-0.4-1.1-1.2c-0.9-0.9-1.9-1.5-2.3-1.3c-0.3,0.1-1.1-0.1-1.8-0.6s-1.4-0.8-1.7-0.7c-0.3,0.1-0.8-0.1-1.2-0.6c-0.5-0.6-0.4-0.7,0.3-0.7c0.9,0,0.9,0,0-0.7c-1.3-1-0.6-1.5,1.2-0.9c1,0.4,1.5,0.4,1.7,0c0.1-0.3,0.2-0.2,0.2,0.3c0,0.4,0.7,1,1.6,1.3c2.1,0.7,2.2,0.7,1.3-0.3c-0.5-0.5-0.7-1.6-0.6-2.9c0.1-1.1,0-2.1-0.3-2.1s-0.4,0.2-0.4,0.4c0,0.6-2.4,0.3-2.9-0.3c-0.1-0.3-1-0.5-2-0.5c-0.9,0-1.9-0.3-2.2-0.5c-0.3-0.3-1.1-0.5-1.7-0.5c-0.6,0-1-0.2-0.8-0.5c0.1-0.2-0.1-0.7-0.7-1.1c-0.7-0.4-0.8-0.7-0.4-1.3c0.4-0.5,0.4-0.8-0.1-1.1c-0.4-0.3-0.7-0.3-0.8,0s-0.4,0.5-0.7,0.5c-0.3,0-0.4-0.3-0.2-0.7c0.1-0.4,0-0.7-0.5-0.7c-0.4,0-0.8,0.3-1,0.7c-0.4,1.2-1.6,0.9-2-0.5c-0.3-1.4-1.4-1.6-2.1-0.4c-0.5,0.8-0.5,0.8-0.5-0.1c0-0.7-0.1-0.8-0.4-0.3c-0.2,0.3-0.7,0.5-1,0.3c-0.3-0.2-0.4-0.6-0.2-0.9c0.2-0.3,0-0.4-0.4-0.2c-0.6,0.2-0.8,0-0.8-0.6c0-0.7-0.3-1-1-1c-0.5,0-0.9-0.2-0.7-0.4c0.1-0.3-0.1-0.7-0.7-1C137.1,46.8,134.8,46.7,134.8,47.3z"/><path fill="#000000" d="M121.8,50.1c0.1,1,0.3,2.3,0.3,2.8c0,0.7,0.1,0.8,0.7,0.3c0.4-0.3,0.6-0.9,0.4-1.3c-0.1-0.4,0.1-0.7,0.7-0.7c1,0,1.6-0.9,1.6-2.3c0-0.5-0.6-0.7-2-0.7h-2.1L121.8,50.1z"/><path fill="#000000" d="M111.1,49.2c-0.3,0.3,0.6,1.6,1.2,1.6c0.2,0,0.4-0.3,0.4-0.7C112.8,49.4,111.6,48.7,111.1,49.2z"/><path fill="#000000" d="M116.7,49.5c0,0.4,0.2,0.8,0.5,0.9c0.3,0.1,0.3,0.4,0,0.8c-0.3,0.6-0.5,0.6-1.1,0.1c-1.5-1.2-1.4,0.5,0.1,2.4c1.8,2.2,2.3,2.3,3.5,0.9c1.2-1.4,1.2-2.7,0-3.1c-0.8-0.2-0.9-0.5-0.5-1.2c0.7-1.3,0.6-1.5-1-1.5C117.2,48.8,116.7,49.1,116.7,49.5z"/><path fill="#000000" d="M101.1,50c-2.7,0.9-3.3,3.7-0.9,3.8c0.7,0,0.6,0.1-0.5,0.5c-2.2,0.6-1.7,1.9,0.8,1.9c1.1,0,2.3,0.4,2.9,0.9c1.1,0.9,1,0.9-2.1,0.7c-3.1-0.2-3.2-0.2-2.9,0.9c0.1,0.6,0.9,1.5,1.7,1.9c0.8,0.4,1.4,1.2,1.4,1.6c0,1.3,4.5,1.2,6.7-0.2c1.5-0.9,1.7-1,2.2-0.2c0.5,0.9,4.3,1.2,4.3,0.3c0-0.2-0.3-0.3-0.7-0.2c-0.5,0.2-0.7,0-0.7-0.5c0-0.4,0.2-0.7,0.5-0.5c0.4,0.3,2.4-0.7,2.4-1.3c0-0.2-0.9-0.9-1.9-1.6c-1.9-1.2-2-1.5-2.1-4.1c-0.2-4.3-2.7-5.1-2.9-0.9c0,0.8-0.1,1.1-0.3,0.7c-0.1-0.4-0.5-1.3-0.7-2c-0.4-1.1-0.5-1.1-0.9-0.4c-0.3,0.5-0.8,0.9-1.1,0.9c-0.4,0-0.6-0.4-0.6-0.9c0-0.6-0.2-0.8-1-0.7c-0.7,0.1-1.1-0.1-1.1-0.6C103.5,49.2,103.3,49.2,101.1,50z"/><path fill="#000000" d="M168.6,50.1c-0.3,0.4-0.4,0.8-0.2,0.9c0.2,0.1,0.6-0.2,1-0.7C170,49.2,169.5,49,168.6,50.1z"/><path fill="#000000" d="M152.3,54.5c0.3,0.1,0.8,0.1,0.9,0c0.2-0.1-0.1-0.3-0.6-0.2C152,54.3,151.9,54.4,152.3,54.5z"/><path fill="#000000" d="M145.1,62.6c0.4,1.3,0.6,1.4,1.2,0.8c0.8-0.9,0.3-2.3-0.9-2.3C144.7,61.1,144.6,61.2,145.1,62.6z"/><path fill="#000000" d="M23.3,65.4c0,0.2,0.6,0.7,1.3,1c1.1,0.5,1.3,0.5,1-0.2c-0.1-0.4-0.3-0.9-0.3-1c0-0.1-0.4-0.2-1-0.2C23.8,65,23.3,65.2,23.3,65.4z"/><path fill="#000000" d="M39,68.9c0,0.2,0.2,0.5,0.5,0.5c0.2,0,0.3-0.2,0.2-0.5c-0.1-0.3-0.4-0.5-0.5-0.5C39.1,68.4,39,68.6,39,68.9z"/><path fill="#000000" d="M35,69.8c0,0.9,0.3,1.1,1.4,1.1c1.5,0,2.3-0.6,1.8-1.5c-0.2-0.3-0.6-0.3-1.2,0c-0.6,0.3-1.1,0.2-1.4-0.1C35.2,68.8,35,68.9,35,69.8z"/><path fill="#000000" d="M136.4,74c0,2.5,0.2,3.2,0.8,3.2c0.4,0,1,0.2,1.3,0.5c0.4,0.4,0.8,0.1,1.3-1c0.8-1.6,1.5-1.9,2-1c0.4,0.7,2.5,0.6,3,0c0.4-0.7-0.7-1.4-1.6-1.1c-0.3,0.1-0.8-0.2-1.1-0.7c-0.2-0.5-1.4-1.3-2.6-1.6c-1.2-0.3-2.3-0.8-2.6-1.1C136.5,70.9,136.4,71.7,136.4,74z"/><path fill="#000000" d="M148.2,75.7c0.1,0.2,0.4,0.5,0.5,0.5c0.1,0,0.2-0.2,0.2-0.5c0-0.3-0.2-0.5-0.5-0.5C148.2,75.2,148.1,75.4,148.2,75.7z"/><path fill="#000000" d="M141.6,79.6c-0.3,0.6-0.3,1,0,1c0.3,0,0.7-0.4,1-1c0.3-0.6,0.3-1,0-1C142.3,78.6,141.9,79.1,141.6,79.6z"/><path fill="#000000" d="M58.8,83.3c-0.6,0.6-0.3,1.1,0.6,1c0.5,0,0.9-0.3,0.8-0.5C60.1,83.2,59.3,82.9,58.8,83.3z"/><path fill="#000000" d="M60.5,84.8c-0.3,0.7-0.5,1.5-0.5,1.8c0,0.8,1.3-0.5,1.6-1.6C62,83.5,61.2,83.4,60.5,84.8z"/><path fill="#000000" d="M60.3,88.7c-0.1,0.4,0,0.7,0.2,0.7c0.6,0,1.1-0.9,0.5-1.2C60.8,88.1,60.5,88.3,60.3,88.7z"/><path fill="#000000" d="M59.6,91.4c0.1,0.5,0,1.1-0.2,1.3c-0.2,0.1-0.2,0.7,0.1,1.3c0.6,1,0.6,1,0.9,0c0.5-1.2,0-3.6-0.6-3.6C59.6,90.4,59.5,90.8,59.6,91.4z"/><path fill="#000000" d="M61.7,93.3c-0.1,0.2,0,0.6,0.2,0.8c0.2,0.1,0.5,0,0.5-0.4C62.4,92.7,62.1,92.6,61.7,93.3z"/><path fill="#000000" d="M197.6,96.3c-0.2,1.2,0,2.5,0.4,3.6c0.4,1,0.6,2.1,0.5,2.4c-0.2,0.4,0,0.7,0.3,0.7c0.4,0,0.5,0.1,0.1,0.4c-0.3,0.2-0.6,0.8-0.8,1.4c-0.2,0.8-0.1,1,0.5,0.8c0.6-0.2,0.7,0,0.4,1c-0.3,1.4,0.5,2.3,1,1.2c0.1-0.4,0.8-0.9,1.6-1.1c0.7-0.1,1.7-0.8,2.2-1.4c0.6-0.7,0.9-0.8,0.9-0.4c0,0.5,0.2,0.4,1-0.2c1-0.9,1-0.9,0.6,0.5c-0.2,1-0.1,1.3,0.2,1c0.3-0.3,0.5-1.4,0.6-2.4c0.2-2.7,0.1-3.3-0.5-2.9c-0.3,0.2-0.6-0.3-0.8-1.2c-0.3-1.3-0.4-1.4-1.4-0.9c-0.5,0.3-1.2,0.8-1.4,1.1c-0.2,0.3-0.4,0.2-0.4-0.2c0-0.5-0.1-0.5-0.7,0c-0.6,0.5-0.7,0.4-0.7-0.2c0-0.5-0.2-0.7-0.5-0.5c-0.7,0.4-1.4-0.7-1.4-2.2c0-0.6-0.3-1.5-0.7-1.8C198,94.4,197.9,94.6,197.6,96.3z"/><path fill="#000000" d="M57.3,97.9c-0.4,1.7-0.3,2.8,0.2,2.8c0.2,0,0.3-0.2,0.2-0.5c-0.2-0.3,0.2-0.9,0.8-1.5c0.9-0.8,1-0.9,0.2-0.6c-0.6,0.2-0.8,0.1-0.6-0.2c0.1-0.3,0.1-0.6-0.1-0.8C57.8,96.9,57.5,97.2,57.3,97.9z"/><path fill="#000000" d="M153.3,97.5c0,0.4,0.2,0.6,0.5,0.4c0.3-0.2,0.4-0.5,0.2-0.8C153.6,96.5,153.3,96.6,153.3,97.5z"/><path fill="#000000" d="M208.5,102.3c-0.7,0.5-0.7,0.7-0.1,1.6c0.4,0.5,0.7,0.7,0.7,0.4c0-0.2,0.2-0.1,0.5,0.3c0.7,1.1,1,0.3,0.7-1.4C209.9,101.5,209.7,101.4,208.5,102.3z"/><path fill="#000000" d="M188.8,106.5c-0.7,0.3-0.4,0.4,1.4,0.4c1.5,0,2.3-0.1,2.1-0.4C191.9,105.9,190.1,105.9,188.8,106.5z"/><path fill="#000000" d="M152.6,108.5c0.1,0.2,0.6,0.5,1,0.5c0.4,0,0.6-0.2,0.4-0.5c-0.1-0.3-0.6-0.5-1-0.5C152.7,108,152.5,108.2,152.6,108.5z"/><path fill="#000000" d="M61.5,110.6c0.5,0.3,0.7,0.8,0.6,0.9c-0.2,0.1,0,0.6,0.4,1.1c0.4,0.4,0.9,1.5,1.1,2.4c0.2,1.2,0.6,1.7,1.2,1.7c0.6,0,0.8,0.2,0.6,0.7c-0.2,0.6,1.7,2.4,2.2,2c0.1-0.1-0.1-1.6-0.6-3.2c-0.8-2.5-1.3-3.3-3.1-4.6c-1.3-0.9-2.4-1.6-2.7-1.6C61,110,61.1,110.3,61.5,110.6z"/><path fill="#000000" d="M198,113.5c-0.3,1.4,0,2.7,0.7,2.7c0.5,0,0.5-3.2,0-3.7C198.5,112.4,198.2,112.8,198,113.5z"/><path fill="#000000" d="M199.8,114.1c0,0.4,0.2,0.6,0.5,0.4c0.3-0.2,0.4-0.5,0.2-0.8C200.1,113.1,199.8,113.3,199.8,114.1z"/><path fill="#000000" d="M194.8,115.6c-1.6,0.8-1.7,1.2-0.4,1.2c0.5,0,1.2-0.4,1.5-1C196.5,114.6,196.5,114.7,194.8,115.6z"/><path fill="#000000" d="M179.7,194.5c0,0.5,0.3,1,0.7,1c0.4,0,0.7-0.3,0.7-0.7s-0.3-0.8-0.7-1C180,193.6,179.7,193.9,179.7,194.5z"/><path fill="#000000" d="M214.8,201.9c-1,0.5-1.7,1.2-1.6,1.4c0.3,0.5,2.9-0.6,3.4-1.5C217.2,200.9,216.7,200.9,214.8,201.9z"/><path fill="#000000" d="M228.4,201.4c-0.5,0.8,0,1,0.7,0.2c0.4-0.4,0.4-0.7,0.1-0.7C228.9,200.8,228.5,201.1,228.4,201.4z"/><path fill="#000000" d="M169.1,202.9c-3.2,1.2-4.2,1.8-4.5,2.7c-0.7,1.9-0.1,1.9,1.9,0c1.4-1.4,2.3-1.8,3.5-1.8c1.4,0,1.6,0.1,1,0.5c-0.5,0.4,0.6,0.4,4.2,0.2c4.5-0.2,5-0.2,5.8,0.7c0.5,0.6,1.5,1,2.5,1c1.7,0,2.1,0.8,1,1.9c-0.8,0.8,7-1.8,7.9-2.6c0.6-0.6,0.4-0.7-1.4-0.7c-1.1,0-2.1-0.2-2.1-0.5c0-0.3-0.9-0.5-2.1-0.4c-1.2,0.1-4-0.5-6.3-1.2C175.3,201,174.1,201,169.1,202.9z"/><path fill="#000000" d="M200.5,203.3c-3.4,1-5.1,1.9-3.6,1.9c0.4,0,0.9,0.4,1.1,0.8c0.1,0.5,0.4,1.1,0.5,1.4c0.1,0.3-0.8,0.8-2.2,1.1c-1.3,0.3-2.4,0.8-2.4,1.1c0,1.1,1.8,1,4.2-0.2c2-1,2.7-1.1,3.1-0.7c0.6,0.6,1.3,0,2.4-2c0.2-0.3,1.5-0.9,3-1.3c3.4-0.9,4.1-1.9,1.6-2.3c-1-0.2-2.3-0.4-3-0.6C204.5,202.5,202.4,202.8,200.5,203.3z"/><path fill="#000000" d="M168,207.3c0,0.2,0.2,0.3,0.5,0.2c0.3-0.1,0.5-0.4,0.5-0.5c0-0.1-0.2-0.2-0.5-0.2C168.2,206.7,168,207,168,207.3z"/><path fill="#000000" d="M184.4,213.3c-1.1,0.5-1.3,0.7-0.6,0.9c1,0.3,4.3-0.5,4.3-1.1C188,212.4,186.1,212.5,184.4,213.3z"/><path fill="#000000" d="M231.6,216.1c-0.3,0.4-0.3,0.9-0.1,1.3c0.3,0.5,0.5,0.5,0.9,0c0.3-0.4,0.3-0.9,0.1-1.3C232.3,215.6,232.1,215.6,231.6,216.1z"/></g></g></g>
</svg>