<?xml version="1.0" encoding="utf-8"?>
<!-- Svg Vector Icons : http://www.onlinewebfonts.com/icon -->
<!DOCTYPE svg PUBLIC "-//W3C//DTD SVG 1.1//EN" "http://www.w3.org/Graphics/SVG/1.1/DTD/svg11.dtd">
<svg version="1.1" xmlns="http://www.w3.org/2000/svg" xmlns:xlink="http://www.w3.org/1999/xlink" x="0px" y="0px" viewBox="0 0 256 256" enable-background="new 0 0 256 256" xml:space="preserve">
<metadata> Svg Vector Icons : http://www.onlinewebfonts.com/icon </metadata>
<g><g><path fill="#1e293b" d="M144.3,188.5l-1.3,0.9l-1.5,0.1c-0.6-0.2-1.1,0-1.7,0.3l-0.9,0.3l-3-1.3l-2.8-1.5l-0.4,0.3c-1.5,1.3-0.8,3.3,0,5l2,3.3h-0.9l0.8,2.4l0.7,1.3l1.9,1.8l2,1.3l2.5-0.2l0.9-2.2c0.1-0.4,0.3-0.6,0.8-0.8l1.9-0.8l1.2-2.9l0.8-3.3l-0.5-2.6C146.8,189.4,146.3,187.4,144.3,188.5z M245.7,190.7c-0.1-0.1-0.4-0.4-0.8-0.4c-0.3,0-0.6,0.1-0.9,0.3l-1.3,0.7h-0.4l-1.2-1.8c-0.6-0.8-1.3-1.4-1.8-1.5l-0.2,0L239,188c-1.1,0.4-1.3,1.6-1.5,2.5l-0.1,0.5c-0.3,1-0.6,1.8-1,2.2l-1.7,2.4l-1.1,1.9l-3.9,3.8l-5.1,3.6c-1.2,0.6-2.7,2-4.5,4.1l-2.2,2.9c-0.6,0.1-1.3,0.9-1.9,2c-0.5,0.8-0.7,1.4-0.4,1.9c0.2,0.4,0.6,0.7,1.2,0.9l0.1,0l2.1-0.3l0.2-0.2c0.2-0.2,0.3-0.2,0.5-0.2l4,1.3l3.4,0.9h0.1c2.6-0.2,4.6-2,5.9-5.6l0.4-2.3l0.5-1.1l0.2,0l0.2-0.3c0.2-0.3,0.4-0.8-0.3-3.2l0.8-0.1c0.2,0,0.3,0,0.4,0c0.6,0,1.2-0.3,2-1c0.3-0.3,0.8-0.6,1.2-0.6l2.6,0.7l-0.6-1.7c-0.3-0.9-0.1-1.6,1-2.5l3.5-3.9l0.9-4.6C246,191.3,246,190.9,245.7,190.7z M165.5,127.4l0.3-3.9c0-1.2-1-2.8-3.3-5.1l-4.4-3.9c-0.7-0.5-1.2-1.2-1.4-1.9l-1.3-3.2l-1.3-0.8l-1.2,0.2c-0.4,0-0.7-0.1-1.2-1.3l-2.1-4.8c-1.2-1.9-2.1-2.9-3.1-3.3c-2.9-1-5.3-2.3-6.3-3.6c-1.2-1.6-2-4-2.4-7.1l-2.1-3.8l-0.1-2.9c0-1.9-1.1-2.6-2.2-2.7c-0.4-0.1-0.8-0.3-0.9-0.5l-0.9-1.1l-1.8,0.5c0,0,0-0.1,0-0.2l-0.3-3.3c-0.4-1.8-0.7-3-1.5-3.3c-0.2-0.3-0.6-0.8-0.8-1.5l-1.2-2.9l-1.4-1.7H124c-1.3,0-1.7,1.9-1.9,2.6l-0.8,1.5c-0.6,0.7-1,1.3-0.8,2.3l-0.7,10.9l-1.3,4.8l-1.7,2.8c-0.9,0.6-1.8,0.7-3,0.4l-3.6-3.2l-0.2,0c-2.3-0.2-2.6-0.6-2.6-0.6l-2.8-2l-0.2-0.1c-1.8-0.6-2.1-0.9-2.2-1l-2.2-1.4l-1.7-1.5c-0.2-0.7,0.1-1.9,1.2-3.8l2.8-3.8l0.7-1.6l0-0.2c0.1-0.8,0-1.3-0.3-1.7c-0.2-0.2-0.5-0.4-0.8-0.4h-0.3c-1,0-1.4,0.9-1.7,1.6c0,0,0,0.1-0.1,0.1c0,0,0,0-0.1,0c-2.1-1.3-4.1-1.8-6.1-1.8l-3.2-0.7l-2.8-1.5l-4.4-0.6l2.7,3.3C86,70,86,70.1,86,70.1c-0.1,0-0.3,0.1-0.8,0.2l-2.4,0.1h-2c-0.2-0.1-0.4-0.1-0.6-0.1c-1.1,0-1.3,1.1-1.3,1.7l-4.3,4.5l-1.3,2.2l0.2,0.3c0.1,0.1,0.2,0.2,0.3,0.4c0.3,0.4,0.6,0.8,0.8,1.3v0.5l-0.3,0.1c-0.1,0-0.2-0.1-0.2-0.1l-1.3-1c-0.4-0.3-0.8-0.4-1.3-0.4c-1.2,0-1.9,1.1-2.2,1.5c-0.1,0.1-0.1,0.2-0.2,0.3c-0.1-0.1-0.2-0.3-0.5-0.6l-1.1-3c-0.4-0.9-1.1-1.4-2-1.4c-0.4,0-0.8,0.1-1.4,0.4c-0.5,0.3-1,0.6-1.3,0.7c-0.7-0.4-1.6-0.1-3.4,1.2l-2.9,2.3l-0.1,0.2c0,0.2-0.4,1-1.9,2.1l-0.2,0.1L54,85.1l0.7,0.8h-0.6c-1.8,0-2.8,0.4-3.2,1.1c-0.2,0.4-0.1,0.9,0.2,1.3l0,0.1c-0.3,0.1-0.5,0.3-0.7,0.6l-0.1,0.2l-0.6-1.2l-0.4-0.4h-0.1l0,0l0,0h-0.1c-0.3,0-1.1,0-4.1,4.3c-2.4,3.6-4.2,5.8-5,6.5c-0.6,0.4-1.6,1-3.5,1.4l-13.1,3.4l-4.4,2.9l-2.9,2.8l-1-0.4c-0.4-0.1-1,0-1.4,0.3c-0.4,0.4-0.8,1.2-0.4,4.2c0,0.2-0.1,0.8-1,2.6c-1.2,1.7-0.6,3,0,3.7l1.6,2.7l0.6,2.6l-0.1,0c-0.1-1.2-0.8-2-1.9-2.2l-0.5-0.1l-0.9,1.2l0.6,0.6l-1.6-0.6l4.2,8.7c2.6,5.5,3.1,7.8,3.1,8.7l3.2,8.3c0.1,1.5,0,2.8-0.6,4l-1.5,3c-0.7,0.8-1,1.6-0.8,2.4c0.3,1.2,1.6,2.1,4,2.9c2.8,0.9,5.4,1.3,7.9,1.3c1.2,0,2.7-0.8,4.8-2.4c1.8-1.3,3.3-2.4,3.9-2.4H47c3.2-0.3,5.5-1.3,7.4-3.1c1.6-1.9,4.2-3,7.5-3.3l4.3-0.5c1.5-0.3,2.8-0.9,4-1.5l0.2-0.2c0.6-0.7,1.9-1.1,4.4-1.4l7.7,0.4c2.4,0.5,5.1,1.1,7,1.8c2.2,0.7,2.7,1.4,2.7,1.6c0,1.3,0.7,2.6,1.8,3.5c1.1,1,1.6,1.7,1.7,2.6c0.1,1.2,0.4,2.7,1.5,3.6c0.2,0.3,0.4,0.6,0.6,0.7v0l0,0c0.2,0.1,0.5,0.2,0.7,0.2c0.8,0,1.4-0.6,1.9-1.2l4.1-5c0.9-1.1,1.5-1.8,2-2.3l-0.1,0.7l-0.7,2.1c-0.7,0.7-0.8,1.7-0.8,2.4v1.4l-2.6,2v0.3c0,0,0,0,0,0.1l-0.9,0.7h1.2c0.2,0.2,0.4,0.3,0.8,0.3c0.3,0,0.7-0.1,1.2-0.4l1.5-0.8l0.1-0.2c0.6-1,1-1.6,1.3-2l0.1,4.7l2.9,0.2l1.3-0.3l1.6,4.2c-0.8,3.5,1.2,6.2,6.5,8.3l6,1.4l4.7-0.1c1.1-0.2,2.1-1,2.8-2.4l0.5-0.5c0.2,0,0.4,0.1,0.5,0.2l1.7,2.5c0.9,1.2,1.8,1.8,2.8,1.8c0.4,0,0.8-0.1,1.3-0.4l2.8-2.2c1-0.9,1.8-1.3,2.2-1.5l6-1.5c3.9-1.6,3.6-3.9,3.1-5.1c-0.9-2.3,3.6-11.9,5.1-15c0.4-0.8,1.5-2.7,4.8-5.6c0.8-0.7,1.3-3.3,1.4-7.5l1.2-5.4c0.3-2,0-4.1-0.8-5.6C165.4,129.7,165.2,128.6,165.5,127.4z M148.3,50.5l1.9,0.7l5.5,0.3l2-1l0.2-0.1c0.7-0.7,1.3-0.7,1.6-0.7c1.3,0.1,1.9-0.1,2-1v-0.1l-0.3-0.9l0.1,0c1-0.5,1.5-1.2,1.5-2.3v-0.2l-0.5-1.1h-2.1c-0.5,0-0.8,0.1-1,0.3c-0.3,0.4-0.2,0.8-0.2,1c0.1,0.3,0,0.5-0.1,0.7c-0.9,0.2-1.3,0.6-1.5,0.8c-1.1,1.2-2,1.6-2.5,1.6c-0.1,0-0.3-0.1-0.6-0.1l-1.5-0.6l-0.8,0.7l-0.9,0.5l-2.4-0.4l-0.8,0.2c-0.2,0-0.6,0.1-0.9,0.5l-0.7,0.3l0.7,0.6C147.4,50.3,147.6,50.4,148.3,50.5z M121.7,62.6c3.1,0.7,5.2,0.3,6.6-1.2l0.1-0.1l0-0.2c0.2-1-1.1-1.3-1.8-1.5c-1.2-0.3-1.3-0.6-1.4-0.7h3.3l0.6-1.4c0.1-0.5,0.2-0.7,0.3-0.8l2.4,0.4l3.3,0.4l0.4,0c0.1,0,0.7,0,1.5,0.7l1.6,1.8c1.1,1.5,2.6,2.7,4.3,3.5l1.4,1.9l4,0.3l3.7,1.5l4.4,0.2l-1-1.4l-1.9-1.4l-0.3-1.3l-1.2-0.5l-1-0.1l-0.3-1.3l-1.3-0.2l-1.5-0.4l-1.4-2.4l-0.2-0.2c-3.6-2.7-4.5-3.9-4.6-4.5l0.1-0.2c0.1-0.2,0.5-0.3,1.1-0.3l1.8-0.1l0.5-0.6l-0.1-0.3c-0.2-1-2.5-2.3-7-3.8c-0.7-0.2-0.9-0.4-0.9-0.5l0-0.1l-0.1-1.4l0-0.2c-0.5-1.1-1.3-2-2.2-2.6c-0.8-0.6-1.9-1-3.4-1.2c-1.3,0-5-1.3-12.6-4.5v24L121.7,62.6z"/></g></g>
</svg>