<?xml version="1.0" encoding="utf-8"?>
<!-- Svg Vector Icons : http://www.onlinewebfonts.com/icon -->
<!DOCTYPE svg PUBLIC "-//W3C//DTD SVG 1.1//EN" "http://www.w3.org/Graphics/SVG/1.1/DTD/svg11.dtd">
<svg version="1.1" xmlns="http://www.w3.org/2000/svg" xmlns:xlink="http://www.w3.org/1999/xlink" x="0px" y="0px" viewBox="0 0 256 256" enable-background="new 0 0 256 256" xml:space="preserve">
<metadata> Svg Vector Icons : http://www.onlinewebfonts.com/icon </metadata>
<g><g><g><path fill="#F9F6F3" d="M79.8,12.7c0.2,1.5,0.5,3.1,0.7,3.5c0.5,1-1,1.9-2.6,1.6c-0.8-0.1-1.2,0-1.3,0.6c-0.1,0.6-0.5,0.7-1.2,0.6c-1.2-0.3-2.8,1-2.8,2.4c0,1.5-0.5,2.5-1.2,2.5c-0.9,0-3,3-2.7,3.9c0.4,1.1-0.5,0.9-1.4-0.3c-0.7-0.9-0.7-0.9-0.3,0c0.4,0.8,0.3,1.2-0.6,1.9c-1.3,1.2-1.4,1.8-0.4,2.9c0.5,0.6,0.7,1.9,0.8,4.7c0,2.2,0.3,4.1,0.5,4.5c0.2,0.3-0.1,1.5-0.7,2.6c-0.8,1.5-1.5,2.2-2.4,2.4c-0.9,0.2-1.3,0.6-1.3,1.1c0,0.5-0.3,0.9-0.7,0.9c-0.4,0-0.7,0.4-0.7,1c0,0.7-0.5,1.2-1.8,1.7c-1.5,0.6-1.8,0.9-1.6,1.8c0.1,0.6,0,1.3-0.5,1.8C57.3,54.9,57,55.6,57,56c0,0.4-0.3,0.8-0.7,1c-1,0.4-0.6,5.4,0.5,5.6c0.4,0.1,1,0,1.3-0.3c0.8-0.8,1.2-0.6,1.2,0.5c0,0.6-1.1,2-2.9,3.6L53.6,69l1,1.6c1.2,2,1.2,2.5,0.2,2.8c-0.6,0.1-0.3,0.5,1.1,1.2c1.3,0.6,2.6,1.9,3.7,3.7c3.2,4.8,5.1,8.1,5.7,10.2c0.3,1.2,0.9,2.5,1.4,3c0.4,0.5,1.2,1.8,1.8,2.9c0.5,1.1,1.2,2,1.4,2.2c0.2,0.1,0.5,1,0.5,1.9c0,2.5,3.6,5.8,10,9.1c3.1,1.6,5.3,3,5.4,3.5c0.1,0.5,0.9,1.1,1.6,1.4c0.8,0.3,1.6,1,1.9,1.8c0.6,1.6,0.6,14.2,0,15c-0.3,0.3-0.5,2.3-0.5,4.5c0,4.8-0.8,10.3-1.6,11.9c-1.2,2.3-1.7,4.7-1.1,5.9c0.4,0.9,0.4,1.4-0.2,2.5c-0.8,1.4-1,4.1-0.4,7.2c0.2,1.3,0.2,2.1-0.2,2.7c-0.3,0.4-0.5,1.2-0.3,1.7c0.1,0.5-0.1,1.6-0.5,2.4c-1.2,2.7-4,10.1-4,10.8c0,0.4-0.4,0.8-1,0.9c-0.6,0.2-0.8,0.5-0.6,1c0.2,0.4,0.5,2.4,0.7,4.3c0.4,3.4,0.4,3.7-0.8,5.3c-1.3,2-1.4,2.9-0.5,4.7c0.7,1.4,1.5,1.8,2.4,0.9c0.4-0.4,0.7-0.1,1.2,0.9c0.6,1.2,0.6,1.5,0,1.9c-0.4,0.3-0.5,1-0.4,1.6c0.2,0.6,0.1,1.4-0.2,1.7c-0.2,0.3-0.6,1.3-0.6,2.2c-0.2,1.2,0,1.8,0.7,2.3l0.9,0.8l-1.5,1.4c-0.9,0.8-1.3,1.5-1,1.7c0.3,0.2,0.2,0.6-0.2,1c-0.4,0.4-0.7,1.2-0.7,1.7c0,1.2-1.1,2.8-1.6,2.3c-0.2-0.2-0.6-0.4-0.8-0.4c-0.2,0-0.6-0.1-0.7-0.1c-0.1,0,0.1-0.5,0.5-0.9c1.4-1.5-0.1-1.6-1.8-0.1l-1.5,1.3l1.2,0.8c0.7,0.4,1.6,0.7,2,0.7c1.2,0,1.4,1,0.4,1.9c-1.4,1.3-1.2,1.7,0.7,1.9c0.9,0.1,1.8,0.4,1.9,0.8c0.1,0.5-0.1,0.6-1.1,0.3l-1.3-0.3l-0.1,2.8c0,1.8,0,2.7,0.4,2.5c0.6-0.4,0.6,0.4,0,1c-0.3,0.3-0.4,0.8-0.1,1.2c0.2,0.3,0.3,1.1,0.3,1.6c-0.1,0.7,0.1,1,0.9,1.2l1.1,0.1l-1.1,1.1c-1,1-1,1.2-0.3,1.5c0.5,0.3,0.7,0.7,0.5,1.3c-0.2,0.7,0,1,0.6,1.2c0.6,0.1,0.8,0.5,0.7,0.8c-0.1,0.5,0.1,0.6,1.1,0.6c1-0.1,1.3,0.1,1.4,0.9c0.1,0.7,0.5,1.1,1,1.1c1.6,0,1.4,0.9-0.2,1.2c-0.9,0.1-1.6,0.6-1.6,0.9c0,0.8-0.1,0.8,2.3,0c1.1-0.4,2.1-0.7,2.4-0.7c0.7,0,0.5,1-0.5,2.2c-1.1,1.4-1.2,1.8-0.2,2.2c1.3,0.5,2.1-0.2,2.1-2c0-2,0.9-3.2,2.5-3.2c0.6,0,1.3-0.3,1.7-0.7c0.4-0.5,1-0.6,2.1-0.4c0.9,0.1,1.6,0.2,1.6,0c0-0.1-0.5-1.2-1.2-2.4c-1.9-3.6-1.5-5.4,1.6-7c1.1-0.5,1.7-1.2,1.8-1.9c0.3-2.4,1.2-3.7,3.4-5.1c2.4-1.5,3.2-2.5,3.2-4c0-0.6-0.4-1-1.3-1.2c-0.7-0.1-1.9-0.8-2.8-1.5c-2.9-2.4-1.1-6.7,3.1-7.4c1.4-0.2,1.8-0.5,1.6-1.1c-0.1-0.5,0-1,0.3-1.1c0.3-0.2,0.5-1,0.5-1.9c0-1.1,0.3-1.8,1.2-2.4c1.3-1.1,1.5-1.5,0.5-1.5s-0.8-0.8,0.2-1.2c0.6-0.2,1.2,0,1.6,0.2c1,0.9,2,0.2,1.8-1.1c-0.2-0.8-0.5-1.1-1.1-0.9c-0.5,0.1-0.7,0.4-0.6,0.6c0.4,0.6-1.5,0.5-2-0.2c-0.3-0.3-0.6-1.7-0.7-3l-0.3-2.4l1.5,0.3c3.5,0.7,5,0.8,6.3,0.3c1.2-0.5,1.3-0.7,1.1-1.9c-0.1-0.7,0-1.8,0.3-2.5c0.5-0.9,0.5-1.2,0.1-1.7c-0.3-0.3-0.6-0.8-0.6-1.2c0-0.6,0.5-0.6,2.2-0.4c2.4,0.3,9.7-0.8,11.7-1.8c0.7-0.4,1.6-1.4,2-2.3c0.4-0.9,1.1-1.8,1.4-2.1c1-0.8,0.8-2.6-0.3-3.3c-0.7-0.5-0.9-1.1-0.8-2.2c0.1-1.3-0.1-1.7-1.8-2.9c-1.9-1.2-2.4-2.3-1.6-2.8c0.2-0.1,0.6,0,1,0.4c0.3,0.4,1.3,0.7,2.3,0.7c1,0,2,0.3,2.3,0.6c0.4,0.5,1.5,0.6,4.1,0.6c3.4-0.1,3.6-0.2,4.7-1.6c0.7-0.9,2.1-2.5,3.1-3.8c1.4-1.6,2-2.8,2.2-4.3c0.2-1.4,0.7-2.4,1.4-2.9c0.6-0.5,1.2-1.5,1.4-2.3c0.2-1.1,0.6-1.4,1.4-1.4c1.4,0,1.4,0.8,0,2.8c-1.4,1.9-1.5,2.3-0.1,1.1c0.5-0.5,1.6-2.2,2.4-3.9c0.7-1.7,2.3-4,3.4-5.2l2-2.2l-0.2-4.7c-0.1-4.1-0.1-4.8,0.6-5.2c0.5-0.2,2.3-1.5,4.1-2.9c1.8-1.3,3.9-2.4,4.5-2.4c1.1,0,1.7-0.4,3.4-2c0.7-0.7,1.2-0.8,3-0.5c3,0.4,5.6-0.1,5.9-1.2c0.1-0.5,0.8-1.2,1.6-1.5c0.9-0.4,1.2-0.8,1.2-1.3c-0.1-0.8,3-6.4,3.7-6.7c0.2-0.1,0.4-1.2,0.4-2.6c0-1.8,0.2-2.6,0.9-3.2c1.1-1,1.6-4.2,1.4-9.4c-0.1-4.4,0.7-8.8,1.5-8c0.3,0.3,0.7,0.5,0.9,0.5c0.5,0,3.1-4.7,3.1-5.6c0-0.5,0.6-1.1,1.3-1.5c2.2-1.2,5.1-4.8,5.9-7.5c0.7-2.5,0.6-3.8-0.6-7.7c-0.8-2.5-1.6-3.1-4.2-3.1c-1.6,0-2.3-0.4-5-2.8c-4.2-3.7-4.8-4-9-4c-2.3,0-4-0.2-4.9-0.7c-1.9-1-3.2-0.9-5.1,0.2c-2,1.2-2,1.2-1.7-0.7c0.3-1.9-0.4-3.1-1.7-2.8c-0.5,0.1-0.9,0-1.1-0.4c-0.1-0.4-0.8-0.8-1.6-1c-0.7-0.2-1.9-0.6-2.8-1.1c-2-1-3.8-0.6-4.7,0.9c-1,1.7-3.4,3.5-3.6,2.8c-0.1-0.3-1-0.6-2.2-0.6c-1.3,0-2-0.2-2-0.6c0-1.5-0.7-1.8-2.3-1c-0.8,0.4-1.6,0.6-1.7,0.6c-0.5-0.5,1.8-4.4,2.8-4.9c1.1-0.6,4-4.2,4-5.1c0-0.2-0.4-0.5-0.9-0.7c-1.4-0.4-1.9-1.3-2.8-4.7c-0.6-2.4-1-3.2-1.7-3.3c-0.5-0.1-1.7-1-2.7-2c-2.5-2.4-6.6-3.7-11.3-3.5c-3.4,0.2-3.5,0.1-5-1.4c-1-1.1-1.8-1.5-2.4-1.4c-0.7,0.2-0.9-0.1-1.2-1.4c-0.5-2.4-3.6-4.3-7.2-4.3h-2.7l1.4-1.4c1.3-1.2,1.4-1.4,0.6-1.7c-0.5-0.2-1.2-0.6-1.5-1c-0.4-0.3-1-0.5-1.5-0.4c-0.5,0.1-1.3-0.2-2-0.8l-1.2-1.1l1.3-0.2c0.7-0.1,0-0.2-1.5-0.3c-2.2,0-3.1,0.1-4,0.9c-1.5,1.2-3.1,1.2-5,0c-1.2-0.7-2-0.9-4.3-0.6c-2.9,0.3-2.9,0.2-3.6-1.2c-1.1-2-3-2.3-7-1c-3.3,1.1-3.2,1-2,3.9c0.7,1.7,0.3,3-0.9,3c-1.3,0-2.2-2.4-1.5-4.1c0.3-0.8,0.4-2,0.2-2.8c-0.2-1.1-0.1-1.5,0.4-1.7c0.4-0.1,1.1-0.3,1.5-0.5c0.6-0.2,0.6-0.4,0.2-0.9c-0.8-1-2-0.8-3.1,0.5c-0.6,0.6-1.3,1.2-1.6,1.2c-0.3,0-0.1-0.4,0.6-0.9l1.2-0.9l-0.9-1.7c-0.5-1-1.4-2-2-2.4L79.5,10L79.8,12.7z"/><path fill="#F9F6F3" d="M89.2,15.4c0,0.1,0.4,0.4,0.9,0.7c0.7,0.4,0.8,0.4,0.6-0.2C90.6,15.3,89.2,14.9,89.2,15.4z"/><path fill="#F9F6F3" d="M117.5,19.7c-0.3,0.2-0.6,0.7-0.8,1.1c-0.2,0.6,0,0.8,0.6,0.8c0.6,0,0.9-0.4,1.1-1.2C118.6,19.3,118.4,19.1,117.5,19.7z"/><path fill="#F9F6F3" d="M152.7,55.5c-0.9,2.3,0.1,4.7,1.8,4.2c0.5-0.1,1.4-0.4,2.1-0.5c0.9-0.2,1.5-0.8,2-1.9c0.4-0.9,0.6-1.8,0.5-1.8c-0.1-0.1-1.5-0.3-3.2-0.5C153.4,54.7,152.9,54.8,152.7,55.5z"/><path fill="#F9F6F3" d="M77.6,197.6c-0.1,0.2-0.4,1.4-0.6,2.7c-0.2,1.9-0.2,2.4,0.4,2.6c0.8,0.3,1.5-1.5,1-2.7c-0.2-0.4,0-1.1,0.2-1.4c0.3-0.3,0.4-0.8,0.2-1.1C78.5,197.2,77.8,197.1,77.6,197.6z"/><path fill="#F9F6F3" d="M78.6,239.7c0,0.3,0.3,0.6,0.7,0.7c0.4,0.2,0.7,0.6,0.7,1c0,0.4,0.2,0.5,0.5,0.4c0.3-0.1,0.5-0.8,0.5-1.4c0-0.9-0.2-1.1-1.2-1.1C79.1,239.2,78.6,239.4,78.6,239.7z"/></g></g></g>
</svg>