<svg class="svg-icon" style="width: 1em; height: 1em;vertical-align: middle;fill: currentColor;overflow: hidden;" viewBox="0 0 1024 1024" version="1.1" xmlns="http://www.w3.org/2000/svg"><path d="M854.3 887.3c-9.3 0-18.1-3.6-24.8-10.3L628 675.5l-3.5 2.7c-21 16.5-44.1 30.1-68.8 40.6-37.4 15.8-77.1 23.8-118 23.8-40.9 0-80.6-8-118-23.8-36.1-15.3-68.5-37.1-96.3-64.9-27.8-27.8-49.7-60.2-64.9-96.3-15.8-37.4-23.8-77.1-23.8-118s8-80.6 23.8-118c15.3-36.1 37.1-68.5 64.9-96.3 27.8-27.8 60.2-49.7 96.3-64.9 37.4-15.8 77.1-23.8 118-23.8 40.9 0 80.6 8 118 23.8 36.1 15.3 68.5 37.1 96.3 64.9 27.8 27.8 49.7 60.2 64.9 96.3 15.8 37.4 23.8 77.1 23.8 118s-8 80.6-23.8 118c-9.7 23-22.2 44.7-37.2 64.5l-2.6 3.5 202 202c6.6 6.6 10.3 15.4 10.3 24.7 0 9.4-3.6 18.1-10.3 24.7-6.7 6.7-15.5 10.3-24.8 10.3zM437.7 206.7c-62.2 0-120.7 24.2-164.8 68.2-44 44-68.2 102.5-68.2 164.8 0 62.2 24.2 120.7 68.2 164.8 44 44 102.5 68.2 164.8 68.2 62.2 0 120.7-24.2 164.8-68.2 44-44 68.2-102.5 68.2-164.8S646.5 319 602.5 274.9c-44-44-102.5-68.2-164.8-68.2z"  /></svg>