<?xml version="1.0" standalone="no"?>
<!DOCTYPE svg PUBLIC "-//W3C//DTD SVG 20010904//EN"
 "http://www.w3.org/TR/2001/REC-SVG-20010904/DTD/svg10.dtd">
<svg version="1.0" xmlns="http://www.w3.org/2000/svg"
 width="500.000000pt" height="500.000000pt" viewBox="0 0 500.000000 500.000000"
 preserveAspectRatio="xMidYMid meet">

<g transform="translate(0.000000,500.000000) scale(0.100000,-0.100000)"
fill="#1e293b" stroke="none">
<path d="M2460 4912 c-19 -9 -40 -28 -47 -42 -10 -19 -13 -153 -13 -562 0
-525 0 -538 -20 -558 -11 -11 -33 -20 -51 -20 -50 0 -227 -39 -324 -71 -121
-41 -301 -135 -406 -214 -109 -81 -258 -237 -336 -352 -57 -83 -133 -224 -163
-303 -25 -65 -34 -70 -130 -70 -116 0 -120 -5 -120 -133 0 -74 4 -99 16 -111
14 -14 176 -16 1635 -16 l1619 0 21 21 c19 19 21 30 17 115 -4 125 -7 127
-135 126 -116 -1 -132 6 -158 75 -67 179 -180 348 -340 509 -219 221 -474 358
-766 410 -143 25 -139 22 -140 101 -1 108 2 157 12 169 5 6 59 14 121 17 87 4
150 16 273 48 137 35 176 42 270 43 69 0 124 -4 147 -12 46 -16 76 -8 89 25
12 32 12 604 -1 637 -13 35 -48 55 -120 68 -84 14 -190 -1 -362 -53 -73 -22
-166 -47 -206 -55 -90 -17 -204 -18 -220 -2 -7 7 -12 41 -12 83 0 81 -14 109
-66 131 -42 18 -42 18 -84 -4z"/>
<path d="M81 2182 c-5 -10 -9 -425 -10 -1045 0 -1006 0 -1028 20 -1048 19 -19
40 -19 898 -19 484 0 886 3 895 6 14 6 16 88 16 836 0 552 3 836 10 849 10 18
27 19 588 19 436 0 581 -3 590 -12 9 -9 12 -211 12 -849 0 -754 2 -837 16
-843 9 -3 411 -6 895 -6 866 0 879 0 899 20 20 20 20 33 20 1039 0 638 -4
1029 -10 1045 l-10 26 -2409 0 c-2287 0 -2411 -1 -2420 -18z"/>
</g>
</svg>
