<?xml version="1.0" standalone="no"?>
<!DOCTYPE svg PUBLIC "-//W3C//DTD SVG 20010904//EN"
 "http://www.w3.org/TR/2001/REC-SVG-20010904/DTD/svg10.dtd">
<svg version="1.0" xmlns="http://www.w3.org/2000/svg"
 width="500.000000pt" height="500.000000pt" viewBox="0 0 500.000000 500.000000"
 preserveAspectRatio="xMidYMid meet">

<g transform="translate(0.000000,500.000000) scale(0.100000,-0.100000)"
fill="#F9F6F3" stroke="none">
<path d="M1043 4980 c-146 -32 -308 -97 -406 -164 -21 -14 -40 -26 -43 -26
-14 0 -127 -96 -190 -161 -128 -135 -211 -272 -272 -454 -51 -153 -65 -255
-60 -433 6 -179 30 -288 97 -446 22 -50 42 -100 45 -112 4 -11 14 -29 24 -40
9 -10 40 -50 69 -89 83 -113 261 -275 358 -327 119 -65 365 -146 377 -125 28
51 166 195 273 286 190 161 245 196 450 284 155 67 234 93 368 122 42 9 77 20
77 25 0 48 47 253 92 400 12 39 106 232 117 240 4 3 18 20 31 39 22 32 23 37
11 94 -17 83 -74 223 -120 294 -21 32 -46 74 -55 94 -34 72 -256 289 -319 312
-10 4 -43 23 -72 42 -74 49 -192 99 -310 131 -86 23 -125 27 -275 30 -147 3
-190 0 -267 -16z m-76 -514 c21 -19 45 -49 54 -68 86 -182 254 -493 265 -492
11 2 174 304 174 323 0 27 111 210 145 240 30 26 44 31 86 31 100 0 164 -50
164 -128 0 -42 -12 -66 -109 -227 -60 -99 -112 -182 -116 -185 -8 -6 -70 -109
-70 -115 0 -3 36 -5 79 -5 62 0 84 -4 102 -18 30 -25 30 -75 0 -105 -19 -20
-33 -22 -151 -25 -119 -3 -130 -5 -130 -22 0 -10 -4 -22 -10 -25 -5 -3 -10
-24 -10 -46 l0 -39 135 0 c78 0 144 -5 159 -11 30 -14 39 -45 23 -78 -20 -42
-51 -51 -189 -51 l-128 0 0 -130 0 -131 -39 -42 -40 -42 -76 0 -76 0 -40 42
-39 42 0 131 0 130 -127 0 c-139 0 -170 9 -190 51 -16 33 -7 64 23 78 15 6 81
11 159 11 l135 0 0 34 c0 19 -8 48 -17 64 l-17 30 -124 4 c-122 3 -124 3 -149
32 -18 21 -23 36 -18 55 11 47 39 61 126 61 43 0 79 2 79 5 0 7 -62 109 -70
115 -14 10 -212 342 -222 371 -14 42 -2 91 30 122 36 35 67 46 129 46 47 1 57
-3 90 -33z"/>
<path d="M3510 4379 c-223 -23 -464 -153 -670 -359 -124 -123 -189 -228 -271
-440 -28 -73 -65 -227 -57 -236 3 -2 56 -8 119 -13 145 -12 295 -42 431 -88
l108 -35 18 22 c12 15 33 24 65 27 45 5 58 15 37 28 -17 10 -50 135 -50 189 0
154 95 295 249 368 92 44 153 58 256 58 182 0 333 -57 429 -161 83 -90 107
-184 63 -250 -30 -44 -60 -59 -125 -59 -59 0 -90 22 -118 83 -56 121 -98 149
-219 149 -91 0 -144 -22 -196 -81 l-41 -46 4 -85 c4 -67 10 -96 31 -137 l27
-53 123 0 c139 0 191 -11 213 -45 23 -35 14 -84 -19 -109 -24 -18 -45 -22
-140 -24 l-112 -4 -2 -61 c-1 -34 -3 -69 -5 -78 -2 -10 35 -52 94 -108 95 -90
100 -93 163 -104 49 -8 89 -8 162 1 88 11 99 11 132 -6 44 -23 67 -74 56 -129
-12 -66 -101 -133 -177 -133 -9 0 -19 -4 -22 -9 -3 -5 18 -53 48 -107 29 -55
69 -138 87 -185 l34 -87 50 25 c59 30 204 138 292 217 65 60 156 174 191 241
115 223 152 359 159 580 7 227 -18 349 -119 579 -51 116 -96 182 -192 283
-208 219 -471 361 -710 384 -108 10 -292 9 -396 -2z"/>
<path d="M2410 3044 c-283 -21 -532 -108 -769 -269 -40 -28 -82 -55 -93 -61
-61 -35 -229 -225 -327 -369 -132 -195 -201 -393 -232 -665 -13 -119 -6 -314
15 -430 30 -154 39 -196 51 -225 7 -16 16 -41 20 -55 11 -36 109 -228 142
-276 84 -125 267 -322 365 -395 82 -61 289 -169 403 -212 268 -100 606 -116
895 -42 157 39 410 159 538 254 103 77 283 272 371 405 37 55 123 225 136 266
4 14 13 39 20 55 12 29 21 68 51 225 21 110 29 329 15 435 -43 342 -139 566
-353 822 -68 81 -175 189 -205 206 -12 7 -54 34 -94 62 -148 100 -321 182
-468 220 -140 36 -357 58 -481 49z m137 -408 c26 -23 28 -30 31 -115 l4 -91
33 0 c119 0 392 -106 472 -182 47 -46 86 -140 80 -195 -9 -82 -71 -143 -146
-143 -34 0 -84 31 -124 78 -127 147 -182 189 -266 199 l-51 6 0 -246 0 -245
53 -12 c87 -18 259 -79 322 -115 156 -87 226 -198 241 -385 7 -92 -12 -185
-60 -286 -48 -98 -123 -163 -247 -213 -86 -34 -198 -61 -256 -61 l-53 0 0 -80
c0 -92 -18 -146 -52 -159 -61 -22 -91 21 -98 143 l-5 91 -75 6 c-104 8 -161
24 -265 74 -120 58 -182 114 -228 207 -69 139 -70 222 -3 287 32 31 40 34 94
34 65 -1 111 -20 134 -55 9 -13 30 -58 47 -100 50 -118 118 -181 214 -194 23
-3 52 -7 65 -10 l22 -4 0 269 0 270 -42 11 c-24 6 -64 17 -90 25 -26 8 -54 15
-64 15 -26 0 -133 50 -194 91 -61 40 -130 111 -153 155 -20 40 -47 164 -47
216 1 110 50 249 113 319 81 90 313 189 441 189 l36 0 0 70 c0 76 17 132 47
149 27 16 39 13 70 -13z"/>
<path d="M2331 2178 c-62 -17 -140 -79 -168 -131 -24 -47 -19 -132 12 -178 39
-60 126 -111 228 -133 l27 -6 0 230 0 230 -32 -1 c-18 0 -48 -5 -67 -11z"/>
<path d="M2580 1125 l0 -254 33 5 c117 20 198 65 249 139 54 78 32 211 -44
268 -58 44 -181 97 -225 97 -10 0 -13 -58 -13 -255z"/>
</g>
</svg>
