<?xml version="1.0" standalone="no"?>
<!DOCTYPE svg PUBLIC "-//W3C//DTD SVG 20010904//EN"
 "http://www.w3.org/TR/2001/REC-SVG-20010904/DTD/svg10.dtd">
<svg version="1.0" xmlns="http://www.w3.org/2000/svg"
 width="500.000000pt" height="500.000000pt" viewBox="0 0 500.000000 500.000000"
 preserveAspectRatio="xMidYMid meet">

<g transform="translate(0.000000,500.000000) scale(0.100000,-0.100000)"
fill="#1e293b" stroke="none">
<path d="M385 4993 c-96 -13 -207 -73 -271 -147 -51 -58 -94 -153 -105 -234
-6 -41 -8 -721 -7 -1722 3 -1600 4 -1657 22 -1705 52 -135 154 -237 285 -283
41 -15 164 -17 1242 -19 l1197 -4 32 41 c18 23 36 56 39 73 4 18 -7 143 -26
287 -18 140 -67 536 -108 880 -163 1342 -306 2468 -322 2523 -44 157 -183 280
-350 307 -55 9 -1562 12 -1628 3z m1155 -1055 c28 -15 50 -36 62 -58 24 -49
321 -1516 314 -1558 -6 -41 -40 -88 -76 -107 -16 -8 -51 -15 -79 -15 -54 0
-99 28 -125 79 -8 14 -35 133 -61 264 l-48 237 -203 0 c-203 0 -204 0 -209
-22 -3 -13 -25 -123 -49 -245 -24 -123 -51 -234 -60 -248 -31 -47 -74 -67
-138 -62 -44 2 -64 9 -84 28 -33 31 -54 71 -54 104 0 35 298 1523 309 1544 15
28 57 62 87 71 16 4 106 9 199 9 158 1 174 -1 215 -21z"/>
<path d="M1237 3378 c-31 -156 -57 -286 -57 -290 0 -5 64 -8 143 -8 l143 0
-56 288 -56 287 -30 3 -30 3 -57 -283z"/>
<path d="M2750 4085 c0 -14 74 -618 165 -1343 92 -724 176 -1399 188 -1499 18
-139 21 -202 15 -264 -13 -138 -27 -159 -404 -589 l-336 -385 168 -3 c93 -1
603 -1 1134 0 921 3 967 4 1015 22 135 52 229 146 281 281 18 48 19 105 22
1700 2 1114 -1 1673 -8 1720 -28 190 -179 345 -366 375 -35 6 -432 10 -966 10
l-908 0 0 -25z m1280 -1023 c19 -9 45 -32 57 -51 20 -29 23 -47 23 -126 l0
-93 73 -6 c39 -4 149 -6 242 -5 101 1 180 -2 196 -9 32 -13 77 -65 85 -98 9
-36 -2 -94 -24 -124 -25 -33 -79 -60 -123 -60 l-36 0 -32 -90 c-61 -169 -152
-335 -263 -477 -26 -35 -48 -67 -48 -72 0 -10 100 -95 254 -214 47 -37 96 -82
106 -100 36 -59 22 -133 -35 -187 -23 -21 -36 -25 -89 -25 l-63 0 -114 87
c-63 48 -145 113 -183 145 -38 32 -74 62 -81 67 -9 7 -35 -10 -86 -56 -141
-125 -292 -238 -326 -244 -94 -18 -172 36 -180 123 -7 64 11 98 79 155 243
202 288 241 288 250 0 6 -22 38 -48 72 -99 126 -196 307 -258 483 l-28 81 -49
5 c-145 14 -185 181 -64 271 26 19 39 20 228 18 110 -2 220 0 244 4 l45 6 0
93 c0 79 3 97 23 126 26 39 79 69 122 69 17 0 46 -8 65 -18z"/>
<path d="M3730 2483 c1 -24 111 -232 167 -316 l66 -99 19 24 c56 70 145 212
184 294 24 51 44 95 44 98 0 3 -108 6 -240 6 -132 0 -240 -3 -240 -7z"/>
<path d="M1724 508 c10 -105 31 -197 57 -252 28 -60 108 -149 164 -182 l43
-25 54 58 c30 32 104 112 163 178 60 66 144 159 188 208 l79 87 -377 0 -378 0
7 -72z"/>
</g>
</svg>
