<?xml version="1.0" standalone="no"?>
<!DOCTYPE svg PUBLIC "-//W3C//DTD SVG 20010904//EN"
 "http://www.w3.org/TR/2001/REC-SVG-20010904/DTD/svg10.dtd">
<svg version="1.0" xmlns="http://www.w3.org/2000/svg"
 width="500.000000pt" height="500.000000pt" viewBox="0 0 500.000000 500.000000"
 preserveAspectRatio="xMidYMid meet">

<g transform="translate(0.000000,500.000000) scale(0.100000,-0.100000)"
fill="#1e293b" stroke="none">
<path d="M905 4989 c-33 -5 -92 -25 -132 -44 -65 -32 -101 -64 -350 -313 -296
-296 -334 -343 -373 -471 -73 -233 -43 -530 89 -899 279 -773 953 -1644 1831
-2363 475 -389 1037 -704 1475 -827 182 -52 285 -65 463 -60 136 4 168 8 238
31 44 15 108 44 141 66 68 44 521 484 588 571 55 71 79 120 99 201 31 127 15
250 -49 356 -43 74 -810 841 -870 871 -69 34 -146 52 -226 52 -184 0 -333 -95
-410 -259 -17 -36 -40 -86 -52 -111 -31 -67 -130 -161 -207 -197 -173 -81
-310 -69 -545 48 -473 237 -924 736 -1061 1175 -23 72 -26 98 -22 173 4 78 9
99 42 166 57 115 120 172 269 244 143 69 209 123 255 209 60 113 76 225 46
337 -29 112 -66 161 -305 402 -465 469 -560 558 -624 590 -96 48 -208 67 -310
52z"/>
</g>
</svg>
